<?xml version="1.0" encoding="UTF-8"?>
<svg version="1.1" xmlns="http://www.w3.org/2000/svg" width="2162" height="1216">
<path d="M0 0 C713.46 0 1426.92 0 2162 0 C2162 401.28 2162 802.56 2162 1216 C1448.54 1216 735.08 1216 0 1216 C0 814.72 0 413.44 0 0 Z " fill="#FEFEFE" transform="translate(0,0)"/>
<path d="M0 0 C2.81123427 2.1824655 5.58309613 4.38056229 8 7 C8 7.66 8 8.32 8 9 C8.66 9 9.32 9 10 9 C10 3.39 10 -2.22 10 -8 C23.86 -8 37.72 -8 52 -8 C52.04520302 17.06994052 52.08202187 42.13984787 52.10362434 67.20981884 C52.11392278 78.85107574 52.12795567 90.49230547 52.15087891 102.13354492 C52.1708567 112.2838489 52.18372685 122.43413318 52.18817699 132.58445626 C52.19077694 137.95549573 52.196858 143.32647887 52.21146011 148.69750023 C52.22511343 153.76092767 52.22920707 158.824276 52.22621536 163.88772011 C52.22676207 165.73831742 52.23069307 167.5889176 52.23841095 169.4394989 C52.36505593 201.39461117 44.80286427 230.11456838 22.6875 253.8125 C9.26505182 266.69238877 -8.1018213 272.75643014 -26 276 C-26.94270752 276.17724609 -27.88541504 276.35449219 -28.85668945 276.53710938 C-34.46195147 277.36255223 -40.09432714 277.18456046 -45.75 277.1875 C-46.97460938 277.19974609 -48.19921875 277.21199219 -49.4609375 277.22460938 C-76.3391459 277.26777566 -97.53282612 263.40396016 -116.03515625 244.97265625 C-122.16365159 238.36951662 -132 226.17404437 -132 217 C-131.28457031 216.70867187 -130.56914063 216.41734375 -129.83203125 216.1171875 C-123.05005024 213.32718755 -116.40741031 210.34527193 -109.8125 207.13671875 C-107 206 -107 206 -103 206 C-103 205.34 -103 204.68 -103 204 C-98.545 203.01 -98.545 203.01 -94 202 C-93.52691406 202.82242188 -93.05382813 203.64484375 -92.56640625 204.4921875 C-84.48081691 218.14154495 -74.62493756 230.60372658 -58.796875 235.33984375 C-41.77934535 238.29865292 -24.56782449 236.78775708 -10 227 C-5.81937253 224.04038119 -3.08146288 220.66861129 -0.375 216.375 C0.01888916 215.75399414 0.41277832 215.13298828 0.81860352 214.49316406 C3.8907687 209.49145449 5.74343352 204.73630439 7 199 C7.17136475 198.27731934 7.34272949 197.55463867 7.51928711 196.81005859 C9.06838306 189.83801021 9.42617199 182.99967025 9.625 175.875 C9.66367188 174.72773437 9.70234375 173.58046875 9.7421875 172.3984375 C9.83549846 169.59910883 9.92128645 166.79977064 10 164 C9.47325684 164.46905762 8.94651367 164.93811523 8.40380859 165.42138672 C-7.27897334 179.28535415 -26.02847258 188.3938112 -47.3125 187.421875 C-74.66943002 185.35851333 -97.08576336 173.92836087 -115.8125 154.125 C-133.01604803 134.11270944 -140.29422694 111.98982446 -140.5 85.875 C-140.51062469 85.15460541 -140.52124939 84.43421082 -140.53219604 83.69198608 C-140.83947681 56.43932052 -128.75660409 32.20472416 -110.0625 12.8125 C-108.41015625 11.14453125 -108.41015625 11.14453125 -107 10 C-106.34 10 -105.68 10 -105 10 C-105 9.34 -105 8.68 -105 8 C-74.76868986 -16.95118405 -33.09321881 -22.39749049 0 0 Z " fill="#4286F1" transform="translate(1344,541)"/>
<path d="M0 0 C0.76658936 -0.00004028 1.53317871 -0.00008057 2.32299805 -0.00012207 C14.78744541 0.03797302 26.49668244 1.43483002 38.5 4.875 C39.24572266 5.07931641 39.99144531 5.28363281 40.75976562 5.49414062 C45.4303048 6.80811352 49.75770629 8.46146457 54.1875 10.4375 C55.404375 10.870625 56.62125 11.30375 57.875 11.75 C75.3616322 18.2652896 90.04407872 29.55618048 104.1875 41.4375 C103.619275 45.10660998 102.24370402 46.68228235 99.5625 49.1875 C96.06044813 52.53892598 92.90204873 56.02802558 89.828125 59.7734375 C88.07141349 61.55524488 86.42710966 62.36966924 84.1875 63.4375 C83.89875 64.015 83.61 64.5925 83.3125 65.1875 C81.60051863 68.61146275 78.94592221 70.79900919 76.1875 73.4375 C73.3400035 72.12421497 71.61629773 70.93769802 69.1875 68.8125 C44.86668926 47.67961794 14.36705068 42.87596956 -16.8125 44.4375 C-22.72503709 45.07409144 -28.17779023 46.58245152 -33.8125 48.4375 C-35.22359206 48.85540543 -36.63506256 49.27203476 -38.046875 49.6875 C-65.87937807 58.28033778 -87.01717851 79.32580069 -100.8125 104.4375 C-114.61712434 131.25549078 -115.84724485 164.15833962 -106.8125 192.6875 C-101.99477493 207.0140969 -94.89315293 220.12653116 -84.8125 231.4375 C-84.11640625 232.27539062 -83.4203125 233.11328125 -82.703125 233.9765625 C-77.38333709 240.22071072 -71.62141108 244.89822595 -64.8125 249.4375 C-63.96042969 250.03304687 -63.10835937 250.62859375 -62.23046875 251.2421875 C-37.16569537 268.1524544 -6.75358551 272.11983264 22.76171875 267.18359375 C39.90339949 263.45034287 54.04532432 257.17505249 67.796875 246.22265625 C70.1875 244.4375 70.1875 244.4375 73.1875 243.4375 C73.1875 242.7775 73.1875 242.1175 73.1875 241.4375 C73.8475 241.4375 74.5075 241.4375 75.1875 241.4375 C75.44917969 240.85355469 75.71085938 240.26960937 75.98046875 239.66796875 C77.25236438 237.31763735 78.66796153 235.68765488 80.5 233.75 C84.17136557 229.67155833 86.7326998 225.32447552 89.1875 220.4375 C89.8475 220.4375 90.5075 220.4375 91.1875 220.4375 C91.30351563 219.60347656 91.41953125 218.76945313 91.5390625 217.91015625 C92.36992948 213.46051319 93.7688947 209.25826529 95.1953125 204.97460938 C97.29642622 198.48549902 98.63003724 192.1865053 100.1875 185.4375 C66.5275 185.4375 32.8675 185.4375 -1.8125 185.4375 C-1.8125 171.2475 -1.8125 157.0575 -1.8125 142.4375 C45.7075 142.4375 93.2275 142.4375 142.1875 142.4375 C143.84211724 151.53789484 144.54046194 159.21193452 144.5 168.3125 C144.49577026 169.33395111 144.49577026 169.33395111 144.49145508 170.3760376 C144.24907454 209.51249141 131.47663318 245.03069108 103.68994141 272.98730469 C99.76560517 276.77517554 95.51915247 280.13335579 91.1875 283.4375 C90.49011719 283.98921875 89.79273438 284.5409375 89.07421875 285.109375 C79.28231486 292.72311991 68.53918235 297.73367763 57.19628906 302.57275391 C55.57688779 303.26987584 53.96986844 303.99572167 52.3671875 304.73046875 C45.66359418 307.69595664 38.65114033 308.89916024 31.45141602 310.05737305 C29.82758989 310.33002454 28.2085539 310.63181504 26.59350586 310.95239258 C17.89619303 312.59954928 9.31906859 312.87655389 0.5 312.875 C-0.26373932 312.87639984 -1.02747864 312.87779968 -1.81436157 312.87924194 C-15.93383711 312.85809372 -29.14892269 311.11465935 -42.8125 307.4375 C-43.58029785 307.23995117 -44.3480957 307.04240234 -45.13916016 306.83886719 C-74.69771872 299.10703732 -103.68199397 280.29784417 -122.8125 256.4375 C-123.59238281 255.47199219 -124.37226563 254.50648438 -125.17578125 253.51171875 C-135.59509656 240.41018369 -151.8125 219.04410353 -151.8125 201.4375 C-152.4725 201.4375 -153.1325 201.4375 -153.8125 201.4375 C-161.30574523 170.33689481 -163.75128749 136.85398686 -151.8125 106.4375 C-151.33635254 105.21401855 -151.33635254 105.21401855 -150.85058594 103.96582031 C-143.80882114 86.15429758 -135.00546129 71.15895557 -122.8125 56.4375 C-122.23113281 55.71304688 -121.64976562 54.98859375 -121.05078125 54.2421875 C-105.98077694 36.0974468 -85.89051933 22.62515938 -64.5 13.0625 C-63.4625061 12.5984375 -63.4625061 12.5984375 -62.40405273 12.125 C-42.2940393 3.4379652 -21.78269241 -0.04799917 0 0 Z " fill="#4186F2" transform="translate(606.8125,415.5625)"/>
<path d="M0 0 C2.68708994 1.24149314 2.68708994 1.24149314 5.61328125 2.12109375 C17.2690339 6.15463665 26.70238911 14.00649145 35.68359375 22.18359375 C36.37195312 22.77785156 37.0603125 23.37210938 37.76953125 23.984375 C45.73101063 31.2433709 51.69225932 42.24363589 55.68359375 52.18359375 C55.68359375 53.17359375 55.68359375 54.16359375 55.68359375 55.18359375 C56.34359375 55.18359375 57.00359375 55.18359375 57.68359375 55.18359375 C63.02221985 67.64038798 63.97712896 79.83485049 64.05859375 93.24609375 C64.07237061 94.49986816 64.08614746 95.75364258 64.1003418 97.04541016 C64.03900287 109.56018721 61.5440757 120.93702819 56.99609375 132.55859375 C56.67576172 133.40164063 56.35542969 134.2446875 56.02539062 135.11328125 C55.25379175 137.14016784 54.47007815 139.16243657 53.68359375 141.18359375 C53.02359375 141.18359375 52.36359375 141.18359375 51.68359375 141.18359375 C51.28720703 142.25480469 51.28720703 142.25480469 50.8828125 143.34765625 C47.42227972 151.5311963 42.17505634 158.22141109 35.68359375 164.18359375 C34.35328125 165.57578125 34.35328125 165.57578125 32.99609375 166.99609375 C30.9251473 168.95509715 29.29997266 170.1176616 26.68359375 171.18359375 C26.68359375 171.84359375 26.68359375 172.50359375 26.68359375 173.18359375 C24.70703125 174.55078125 24.70703125 174.55078125 22.05859375 176.05859375 C19.2379361 177.67644844 16.51989245 179.29784597 13.8515625 181.16015625 C10.23037349 183.47307352 6.59540442 185.08511067 2.62109375 186.68359375 C1.94626953 186.96589844 1.27144531 187.24820313 0.57617188 187.5390625 C-1.70519451 188.47014647 -4.00364812 189.33344768 -6.31640625 190.18359375 C-7.26128906 190.54533691 -8.20617188 190.90708008 -9.1796875 191.27978516 C-17.59601596 194.22523842 -25.20595298 194.7482031 -34.01171875 194.59521484 C-36.21010091 194.55827966 -38.40680564 194.55419999 -40.60546875 194.5546875 C-48.10956101 194.50285797 -54.67149145 194.13934735 -61.69140625 191.18359375 C-64.45611729 190.03010733 -64.45611729 190.03010733 -68.12890625 189.55859375 C-80.45685032 186.97303501 -93.60445874 178.86823896 -102.7734375 170.41796875 C-104.41553289 168.958493 -104.41553289 168.958493 -107.31640625 168.18359375 C-109.1484375 165.92578125 -109.1484375 165.92578125 -111.12890625 163.05859375 C-113.48688402 159.70983267 -115.83096784 156.4822503 -118.56640625 153.43359375 C-121.38437286 150.24142561 -123.30174811 146.93502615 -125.31640625 143.18359375 C-125.79851563 142.39597656 -126.280625 141.60835937 -126.77734375 140.796875 C-139.28297546 119.56269325 -140.52461548 91.80654276 -135.31640625 68.18359375 C-134.46477895 64.96667595 -133.46623492 61.82780863 -132.37890625 58.68359375 C-132.12689453 57.91273438 -131.87488281 57.141875 -131.61523438 56.34765625 C-130.29314792 52.4388789 -128.99132674 49.38460663 -126.31640625 46.18359375 C-125.51203125 44.45109375 -125.51203125 44.45109375 -124.69140625 42.68359375 C-120.60067885 34.28186902 -114.33387565 26.3452742 -107.31640625 20.18359375 C-106.65640625 20.18359375 -105.99640625 20.18359375 -105.31640625 20.18359375 C-105.31640625 19.52359375 -105.31640625 18.86359375 -105.31640625 18.18359375 C-104.65640625 18.18359375 -103.99640625 18.18359375 -103.31640625 18.18359375 C-102.82140625 16.69859375 -102.82140625 16.69859375 -102.31640625 15.18359375 C-100.25390625 14.49609375 -100.25390625 14.49609375 -98.31640625 14.18359375 C-98.31640625 13.52359375 -98.31640625 12.86359375 -98.31640625 12.18359375 C-93.46063484 8.23070954 -88.09781496 5.51644288 -82.31640625 3.18359375 C-81.64867187 2.80460938 -80.9809375 2.425625 -80.29296875 2.03515625 C-72.15268761 -2.54896112 -63.38756071 -4.05009357 -54.31640625 -5.81640625 C-53.12084106 -6.08227539 -53.12084106 -6.08227539 -51.90112305 -6.35351562 C-34.81950312 -9.41262126 -15.69863663 -7.14788987 0 0 Z " fill="#FABE06" transform="translate(1121.31640625,533.81640625)"/>
<path d="M0 0 C1.03125 0.4125 2.0625 0.825 3.125 1.25 C11.3661551 4.75842966 18.91459955 9.41701376 25.37890625 15.6171875 C27.06407878 17.22974071 27.06407878 17.22974071 30 18 C33.24057992 21.4642886 36.09123988 25.25544355 39 29 C39.7115625 29.90878906 40.423125 30.81757812 41.15625 31.75390625 C45.99325914 38.14433948 49.60417905 44.7575854 53 52 C53.5053125 52.9178125 54.010625 53.835625 54.53125 54.78125 C59.86765776 66.47593083 60.3786516 80.35637718 60.4375 93 C60.44740967 94.09594482 60.45731934 95.19188965 60.4675293 96.32104492 C60.38491129 104.21255038 59.06813841 111.39759022 57 119 C56.78110107 119.81436523 56.56220215 120.62873047 56.33666992 121.46777344 C51.84896332 137.33145732 44.65526236 150.25332382 33 162 C32.13375 162.9075 31.2675 163.815 30.375 164.75 C7.55476394 186.369171 -18.55119429 192.91061035 -49.26855469 192.109375 C-54.95253488 191.88177193 -60.43109891 191.1997757 -66 190 C-67.10730469 189.76667969 -68.21460938 189.53335938 -69.35546875 189.29296875 C-87.22635722 184.8706811 -104.51643748 174.40713004 -116 160 C-116.70640625 159.20207031 -117.4128125 158.40414062 -118.140625 157.58203125 C-128.05850555 146.1629749 -133.89976991 133.4750547 -138 119 C-138.3196875 117.96359375 -138.639375 116.9271875 -138.96875 115.859375 C-143.58305679 98.51299947 -142.40976406 78.99676735 -137 62 C-136.69964844 61.01515625 -136.39929688 60.0303125 -136.08984375 59.015625 C-129.87363623 40.39391242 -119.17564794 25.38189832 -104 13 C-103.25878906 12.38898437 -102.51757812 11.77796875 -101.75390625 11.1484375 C-88.91420282 1.4018342 -73.71615027 -4.16400296 -58 -7 C-56.61748047 -7.28230469 -56.61748047 -7.28230469 -55.20703125 -7.5703125 C-37.24258156 -9.97724242 -16.17285315 -8.84606059 0 0 Z " fill="#E84434" transform="translate(906,535)"/>
<path d="M0 0 C5.88101164 5.29241447 10.55599184 11.27852853 15.03759766 17.78173828 C15.75133545 18.77137573 15.75133545 18.77137573 16.47949219 19.78100586 C20.53956045 25.57012323 23.31212069 31.53555233 25.91259766 38.09423828 C26.51587891 39.55700195 26.51587891 39.55700195 27.13134766 41.04931641 C30.03759766 48.25068758 30.03759766 48.25068758 30.03759766 52.78173828 C23.93445531 55.70400559 17.76263607 58.3202418 11.41259766 60.65673828 C2.85783348 63.80585068 -5.55218844 67.2677334 -13.96240234 70.78173828 C-14.97560547 71.20197266 -15.98880859 71.62220703 -17.03271484 72.05517578 C-18.90768527 72.83336685 -20.78138112 73.61463577 -22.65380859 74.39892578 C-25.32544159 75.51552328 -28.0004711 76.62288771 -30.67724609 77.72705078 C-32.37653328 78.43261516 -34.07575185 79.13834479 -35.77490234 79.84423828 C-36.57589355 80.17286865 -37.37688477 80.50149902 -38.20214844 80.84008789 C-41.84813627 82.36057958 -45.3412189 83.93143272 -48.74755859 85.93798828 C-51.46119002 87.49428723 -53.59556217 88.45277746 -56.58740234 89.21923828 C-65.67831395 91.77131514 -74.35465611 95.40742512 -82.90771484 99.37939453 C-86.80075659 101.16660935 -90.72354785 102.88172075 -94.64990234 104.59423828 C-95.37024658 104.9086084 -96.09059082 105.22297852 -96.83276367 105.546875 C-98.54235907 106.29248132 -100.25233883 107.03720624 -101.96240234 107.78173828 C-97.55518873 119.74121935 -87.71507502 128.36207188 -76.59521484 133.97705078 C-63.9260579 139.22832453 -46.48546558 138.84507449 -33.68115234 134.04345703 C-26.19408965 130.56885753 -15.82597946 125.50889251 -11.96240234 117.78173828 C-11.30240234 117.78173828 -10.64240234 117.78173828 -9.96240234 117.78173828 C-9.67365234 117.18361328 -9.38490234 116.58548828 -9.08740234 115.96923828 C-7.96240234 113.78173828 -7.96240234 113.78173828 -5.96240234 110.78173828 C-2.55474753 111.40480835 -0.42904079 112.67928346 2.35009766 114.71923828 C7.40494074 118.35992884 12.56259754 121.81391828 17.77124023 125.22875977 C21.34259714 127.58780823 24.73663241 130.04665279 28.03759766 132.78173828 C27.53834163 136.99545914 24.96007189 139.45559326 22.16259766 142.40673828 C21.67082031 142.93162842 21.17904297 143.45651855 20.67236328 143.99731445 C3.82176702 161.76288736 -14.26459296 171.60827285 -37.96240234 176.78173828 C-38.90587524 177.04325684 -38.90587524 177.04325684 -39.8684082 177.31005859 C-63.53581517 182.64122686 -90.19639683 174.39719396 -110.17041016 161.95751953 C-126.75336892 151.07692969 -137.56241565 135.44349159 -145.96240234 117.78173828 C-146.40326172 116.90259766 -146.84412109 116.02345703 -147.29833984 115.11767578 C-152.94340749 102.76643754 -153.22921586 88.73137631 -153.27490234 75.40673828 C-153.28038086 74.24287598 -153.28585937 73.07901367 -153.29150391 71.87988281 C-153.20403189 61.27314706 -151.91434031 51.24961179 -148.21240234 41.28173828 C-147.94927246 40.56034668 -147.68614258 39.83895508 -147.41503906 39.09570312 C-143.36074624 28.23193696 -138.10661781 18.92341807 -130.96240234 9.78173828 C-130.51638672 9.16943359 -130.07037109 8.55712891 -129.61083984 7.92626953 C-116.69019939 -8.75958824 -94.48085904 -19.49271636 -74.05615234 -22.86279297 C-45.63864775 -25.82133733 -21.72983279 -18.74085992 0 0 Z " fill="#E84435" transform="translate(1641.96240234375,550.21826171875)"/>
<path d="M0 0 C14.52 0 29.04 0 44 0 C45 1 45 1 45.1241985 3.01574713 C45.12381878 3.91150739 45.12343906 4.80726765 45.12304783 5.73017216 C45.12503888 6.7597649 45.12702993 7.78935764 45.12908131 8.85015017 C45.12616847 9.99506707 45.12325563 11.13998398 45.12025452 12.31959534 C45.12110894 13.52509771 45.12196337 14.73060008 45.12284368 15.97263283 C45.1242119 19.33385923 45.12106432 22.69502811 45.11606562 26.05624759 C45.11176451 29.67521408 45.1132073 33.29417865 45.1139679 36.91314697 C45.11449335 43.18827807 45.11134434 49.46339881 45.10573006 55.7385273 C45.09761791 64.81141341 45.09500013 73.88429449 45.09374207 82.95718383 C45.0915511 97.67580443 45.08488979 112.39441951 45.07543945 127.11303711 C45.0662665 141.41446912 45.0591851 155.71589963 45.05493164 170.01733398 C45.05466892 170.89823496 45.05440619 171.77913593 45.05413551 172.68673087 C45.05283051 177.10576125 45.05156679 181.52479163 45.05032361 185.94382203 C45.03994959 222.62921875 45.02205568 259.31460858 45 296 C30.15 296 15.3 296 0 296 C0 198.32 0 100.64 0 0 Z " fill="#37AA55" transform="translate(1425,426)"/>
<path d="M0 0 C1.40958984 0.66902344 1.40958984 0.66902344 2.84765625 1.3515625 C3.88212891 1.85816406 3.88212891 1.85816406 4.9375 2.375 C4.9375 3.035 4.9375 3.695 4.9375 4.375 C5.783125 4.54 6.62875 4.705 7.5 4.875 C12.32989094 6.98258877 14.73523335 10.2888498 17.9375 14.375 C18.73027344 15.34179688 18.73027344 15.34179688 19.5390625 16.328125 C28.70575807 27.89226402 32.53129518 40.35924993 32.5 55 C32.49830811 56.14138428 32.49661621 57.28276855 32.49487305 58.45874023 C32.28938701 68.17431266 30.33854973 75.780988 25.9375 84.375 C25.48503906 85.29539062 25.03257813 86.21578125 24.56640625 87.1640625 C17.93313814 99.8519959 8.00264326 108.05978424 -5.0625 113.375 C-5.64990967 113.64119141 -6.23731934 113.90738281 -6.8425293 114.18164062 C-12.33951007 116.51942911 -17.20031867 116.76787099 -23.125 116.625 C-23.98416016 116.61984375 -24.84332031 116.6146875 -25.72851562 116.609375 C-41.59881285 116.41539123 -53.11906025 110.57911299 -64.671875 99.89453125 C-68.55077444 95.80647547 -71.33961515 91.28591731 -74.0625 86.375 C-74.5471875 85.51519531 -75.031875 84.65539062 -75.53125 83.76953125 C-82.459032 70.77994 -83.79003163 53.63200136 -80.33300781 39.36425781 C-75.08580382 23.05387347 -65.93855759 9.68072404 -50.9453125 0.84765625 C-35.6220502 -6.98008073 -15.63610319 -7.52116356 0 0 Z " fill="#FEFEFC" transform="translate(1109.0625,571.625)"/>
<path d="M0 0 C0.91040039 -0.00636475 1.82080078 -0.01272949 2.75878906 -0.01928711 C17.42273226 0.25576148 30.25156381 6.82827293 40.75 16.8125 C45.54177522 21.90023781 48.8941358 27.14276805 51.75 33.5 C52.06453125 34.15226563 52.3790625 34.80453125 52.703125 35.4765625 C59.50510959 51.14780151 58.76635473 71.68102159 52.6484375 87.359375 C46.6406675 101.23128415 34.27496001 112.93989218 20.22265625 118.5 C18.07656204 119.2234807 15.92802827 119.88088767 13.75 120.5 C12.265 120.995 12.265 120.995 10.75 121.5 C-7.74934424 123.07584591 -22.50890199 119.83882536 -36.9375 107.75 C-41.518232 103.51727414 -44.93695812 98.75934586 -48.25 93.5 C-48.65089844 92.88125 -49.05179688 92.2625 -49.46484375 91.625 C-57.61233521 78.34305165 -58.32291039 60.06436414 -55.12353516 45.08691406 C-51.22916629 29.27295389 -41.76919751 15.77518734 -27.93359375 6.96875 C-18.56754021 1.8426421 -10.57094905 0.063028 0 0 Z " fill="#FEFCFC" transform="translate(865.25,566.5)"/>
<path d="M0 0 C11.62625424 8.51540693 17.69196772 19.43377571 21.16796875 33.3203125 C21.39355469 34.12855469 21.61914062 34.93679688 21.8515625 35.76953125 C25.78521545 51.74830081 23.35483065 70.02538436 15.16796875 84.3203125 C4.36343394 101.37621825 4.36343394 101.37621825 -4.09765625 104.03125 C-4.67 104.12664062 -5.24234375 104.22203125 -5.83203125 104.3203125 C-5.83203125 104.9803125 -5.83203125 105.6403125 -5.83203125 106.3203125 C-7.55947141 106.97074969 -9.28906815 107.61546094 -11.01953125 108.2578125 C-11.98246094 108.61746094 -12.94539063 108.97710938 -13.9375 109.34765625 C-26.40944959 113.53863526 -41.9238213 112.70129507 -53.83203125 107.3203125 C-69.24451545 99.36681129 -78.11600923 87.3652866 -83.83203125 71.3203125 C-88.27816403 57.11437605 -88.20754628 37.90747568 -81.83203125 24.3203125 C-81.46980469 23.52367187 -81.10757812 22.72703125 -80.734375 21.90625 C-74.0962872 8.81009033 -63.05203506 -1.39093753 -49.83203125 -7.6796875 C-32.40849582 -13.09461289 -14.79528677 -10.24953621 0 0 Z " fill="#FCFDFE" transform="translate(1333.83203125,576.6796875)"/>
<path d="M0 0 C4.30339522 3.25738235 7.99871501 6.9559305 10.5625 11.75 C10.5625 12.74 10.5625 13.73 10.5625 14.75 C9.55509766 15.11738281 9.55509766 15.11738281 8.52734375 15.4921875 C0.9410563 18.33092732 -6.46436006 21.48380454 -13.875 24.75 C-21.27940993 28.01053736 -28.64698622 30.9944694 -36.3046875 33.60546875 C-40.79921836 35.24748564 -45.07802008 37.28610442 -49.3984375 39.3359375 C-52.96206957 40.99407993 -56.5772399 42.4561265 -60.23828125 43.8828125 C-62.17733246 44.64741173 -64.09117319 45.47529526 -66 46.3125 C-70.08060499 48.01893481 -74.22687755 49.40374656 -78.4375 50.75 C-79.46393457 34.46390479 -75.31815016 22.10133108 -64.59765625 9.60546875 C-47.8504272 -8.30618931 -21.092228 -13.73666712 0 0 Z " fill="#FEFAF9" transform="translate(1610.4375,573.25)"/>
<path d="M0 0 C47.52 0 95.04 0 144 0 C144 4.62 144 9.24 144 14 C143.67 14 143.34 14 143 14 C142.67 10.04 142.34 6.08 142 2 C96.13 2 50.26 2 3 2 C3 14.54 3 27.08 3 40 C8.79433594 39.98839844 14.58867188 39.97679687 20.55859375 39.96484375 C24.26367302 39.95972487 27.96874783 39.95491023 31.67382812 39.95117188 C37.53459598 39.94523011 43.39534798 39.93825678 49.25610352 39.92456055 C53.98939753 39.91357032 58.7226745 39.90768956 63.4559803 39.90512276 C65.2477654 39.90329721 67.03954974 39.89973366 68.83132744 39.89426994 C77.79291944 39.86806891 86.72625926 39.94647527 95.67602539 40.44360352 C96.40229598 40.48245887 97.12856657 40.52131422 97.87684536 40.56134701 C102.87488794 40.87488794 102.87488794 40.87488794 104 42 C104.04092937 44.33297433 104.04241723 46.66705225 104 49 C103.34 49 102.68 49 102 49 C102 51.97 102 54.94 102 58 C101.34 58 100.68 58 100 58 C99.505 58.99 99.505 58.99 99 60 C99.63843072 54.14771843 100.7094938 48.8072779 102 43 C68.34 43 34.68 43 0 43 C0 28.81 0 14.62 0 0 Z " fill="#5B91E8" transform="translate(605,558)"/>
<path d="M0 0 C13.53 0 27.06 0 41 0 C41 63.36 41 126.72 41 192 C40.67 192 40.34 192 40 192 C39.67 129.3 39.34 66.6 39 2 C20.685 1.505 20.685 1.505 2 1 C2 5.95 2 10.9 2 16 C-3 17 -3 17 -6 17 C-6 15.68 -6 14.36 -6 13 C-4.68 13.33 -3.36 13.66 -2 14 C-2 14.66 -2 15.32 -2 16 C-1.34 16 -0.68 16 0 16 C0 10.72 0 5.44 0 0 Z " fill="#407BD5" transform="translate(1354,534)"/>
<path d="M0 0 C0.33 0 0.66 0 1 0 C1 13.2 1 26.4 1 40 C4.05435303 39.99476318 7.10870605 39.98952637 10.25561523 39.98413086 C20.32190067 39.96759691 30.38818669 39.95652956 40.45448208 39.94818783 C46.56056369 39.94295844 52.66663144 39.9358598 58.77270508 39.92456055 C64.66005147 39.91373363 70.54738449 39.90772358 76.43474007 39.90512276 C78.68632277 39.90326815 80.93790469 39.89964687 83.18948174 39.89426994 C86.33133427 39.88706211 89.47313083 39.88600895 92.61499023 39.88647461 C94.02623421 39.8810817 94.02623421 39.8810817 95.46598816 39.87557983 C101.88594784 39.88594784 101.88594784 39.88594784 103 41 C103.04092937 43.33297433 103.04241723 45.66705225 103 48 C102.34 48 101.68 48 101 48 C101 50.97 101 53.94 101 57 C100.34 57 99.68 57 99 57 C98.505 57.99 98.505 57.99 98 59 C98.68163064 52.86532422 99.77956834 47.10215831 101 41 C67.67 41 34.34 41 0 41 C0 27.47 0 13.94 0 0 Z " fill="#467ED7" transform="translate(606,559)"/>
<path d="M0 0 C2.3340064 0.02381138 4.66687729 0.02049987 7.00097656 0.01391602 C29.79024511 0.05513769 29.79024511 0.05513769 34.07128906 4.33618164 C33.11996094 4.26399414 32.16863281 4.19180664 31.18847656 4.11743164 C20.85903922 3.40723543 10.54639673 3.22484556 0.19628906 3.21118164 C-0.80655121 3.2074353 -0.80655121 3.2074353 -1.82965088 3.20361328 C-3.75589101 3.19770584 -5.68215155 3.20039002 -7.60839844 3.20336914 C-9.2903833 3.20506104 -9.2903833 3.20506104 -11.00634766 3.20678711 C-13.51628309 3.31792042 -15.53294186 3.65106359 -17.92871094 4.33618164 C-20.74068525 4.59329976 -23.55221785 4.77757218 -26.37011719 4.95727539 C-29.16447037 5.18509171 -29.16447037 5.18509171 -31.92871094 7.33618164 C-34.38183594 7.71508789 -34.38183594 7.71508789 -37.17871094 7.89868164 C-41.47162267 8.21794201 -45.67632973 8.67470012 -49.92871094 9.33618164 C-46.65201513 7.15171777 -44.04090011 6.40412543 -40.24121094 5.39868164 C-39.06171875 5.0802832 -37.88222656 4.76188477 -36.66699219 4.43383789 C-35.0900074 4.05756535 -33.51008929 3.69353938 -31.92871094 3.33618164 C-30.79127441 3.07667725 -29.65383789 2.81717285 -28.48193359 2.54980469 C-18.93920691 0.49885733 -9.74669471 -0.10603185 0 0 Z " fill="#5D93E7" transform="translate(603.9287109375,415.663818359375)"/>
<path d="M0 0 C0.87840996 3.09720845 0.99435406 4.90645403 0 8 C-0.66 8 -1.32 8 -2 8 C-1.938125 9.051875 -1.938125 9.051875 -1.875 10.125 C-2.09037603 15.07864867 -4.12940084 19.45711633 -6 24 C-6.66 24 -7.32 24 -8 24 C-7.98839844 24.71027344 -7.97679687 25.42054688 -7.96484375 26.15234375 C-7.95130859 27.53099609 -7.95130859 27.53099609 -7.9375 28.9375 C-7.92589844 29.85402344 -7.91429687 30.77054688 -7.90234375 31.71484375 C-8 34 -8 34 -9 35 C-11.79351575 50.42980965 -11.62209238 66.36906511 -12 82 C-12.33 82 -12.66 82 -13 82 C-17.01227923 53.52576028 -11.79866503 25.94895401 0 0 Z " fill="#608FD9" transform="translate(461,508)"/>
<path d="M0 0 C6.98744201 6.98744201 5.32522067 23.07788429 5.375 32.0625 C5.39554443 33.94243652 5.39554443 33.94243652 5.41650391 35.86035156 C5.36094012 47.35454656 3.37117866 58.12498624 -0.6875 68.875 C-1.34298828 70.63457031 -1.34298828 70.63457031 -2.01171875 72.4296875 C-2.50091797 73.70199219 -2.50091797 73.70199219 -3 75 C-3.33 75 -3.66 75 -4 75 C-3.88610125 73.20759337 -3.75852313 71.41605165 -3.625 69.625 C-3.52058594 68.12839844 -3.52058594 68.12839844 -3.4140625 66.6015625 C-3 64 -3 64 -1 62 C-0.45051478 60.17203399 -0.45051478 60.17203399 -0.1484375 58.0859375 C-0.01953125 57.32539062 0.109375 56.56484375 0.2421875 55.78125 C0.36851563 54.9871875 0.49484375 54.193125 0.625 53.375 C0.7590625 52.57320312 0.893125 51.77140625 1.03125 50.9453125 C1.36134789 48.96472516 1.68161083 46.98250325 2 45 C2.66 45 3.32 45 4 45 C3.88981327 41.10360004 3.75925522 37.20813907 3.625 33.3125 C3.5940625 32.20970703 3.563125 31.10691406 3.53125 29.97070312 C3.49257812 28.90400391 3.45390625 27.83730469 3.4140625 26.73828125 C3.3826416 25.75899658 3.3512207 24.77971191 3.31884766 23.77075195 C2.98403505 20.86126628 2.12449634 18.68824905 1 16 C0.68115234 13.96362305 0.68115234 13.96362305 0.5859375 12.01171875 C0.54726562 11.30595703 0.50859375 10.60019531 0.46875 9.87304688 C0.4378125 9.15181641 0.406875 8.43058594 0.375 7.6875 C0.33632812 6.94693359 0.29765625 6.20636719 0.2578125 5.44335938 C0.16418295 3.62928691 0.08103149 1.81467884 0 0 Z " fill="#F0C949" transform="translate(1180,595)"/>
<path d="M0 0 C0.33 0 0.66 0 1 0 C2.4972607 6.42711909 2.24167801 12.93569468 2.25 19.5 C2.25167175 20.18864136 2.25334351 20.87728271 2.25506592 21.58679199 C2.25950228 52.11074658 2.25950228 52.11074658 -3 60 C-2.85663841 57.54150116 -2.71034687 55.0832301 -2.5625 52.625 C-2.52318359 51.94566406 -2.48386719 51.26632812 -2.44335938 50.56640625 C-2.21959003 46.88281863 -1.91927205 43.22907517 -1.5 39.5625 C-0.70492487 31.86118406 -0.63485805 24.10982455 -0.4375 16.375 C-0.39421085 14.78254306 -0.35059363 13.190095 -0.30664062 11.59765625 C-0.2006458 7.73186282 -0.09908675 3.86597641 0 0 Z " fill="#5E8FD9" transform="translate(749,564)"/>
<path d="M0 0 C1.45035699 2.72513434 2.46363363 5.31135047 3.25390625 8.29296875 C3.46853516 9.08767578 3.68316406 9.88238281 3.90429688 10.70117188 C4.12150391 11.52166016 4.33871094 12.34214844 4.5625 13.1875 C4.9982599 14.8276342 5.43690819 16.46700465 5.87890625 18.10546875 C6.0704126 18.82887451 6.26191895 19.55228027 6.45922852 20.29760742 C6.86085028 22.01413321 6.86085028 22.01413321 8 23 C8.04063832 24.66617115 8.042721 26.33388095 8 28 C8.66 28 9.32 28 10 28 C10.226875 28.9075 10.45375 29.815 10.6875 30.75 C12.00301454 35.41149719 13.95868564 39.79173921 15.87890625 44.23046875 C16.79742031 46.49955051 17.4930167 48.61319097 18 51 C18.66 51 19.32 51 20 51 C20 52.65 20 54.3 20 56 C17.20631887 52.61191863 15.38063754 48.90307166 13.5625 44.9375 C13.25755615 44.27717773 12.9526123 43.61685547 12.63842773 42.93652344 C6 28.36617024 6 28.36617024 6 23 C5.34 23 4.68 23 4 23 C3.3267344 20.10555905 2.66119596 17.20969987 2 14.3125 C1.80921875 13.49587891 1.6184375 12.67925781 1.421875 11.83789062 C0.51266084 7.82760674 -0.27000098 4.14282748 0 0 Z " fill="#4D84DA" transform="translate(449,594)"/>
<path d="M0 0 C0.66 0.33 1.32 0.66 2 1 C-0.86698342 4.49413605 -2.84150148 6.28836874 -7.3125 6.8125 C-9.1378125 6.9053125 -9.1378125 6.9053125 -11 7 C-11 7.99 -11 8.98 -11 10 C-18.36706634 12.31721009 -25.44352881 12.33244151 -33.125 12.3125 C-34.99865234 12.33666992 -34.99865234 12.33666992 -36.91015625 12.36132812 C-38.11800781 12.36197266 -39.32585937 12.36261719 -40.5703125 12.36328125 C-42.20637451 12.36775269 -42.20637451 12.36775269 -43.87548828 12.37231445 C-47.46159621 11.94499654 -49.86464217 10.74878059 -53 9 C-55.04207852 8.26473103 -55.04207852 8.26473103 -56.875 7.8125 C-58.421875 7.4103125 -58.421875 7.4103125 -60 7 C-60 6.34 -60 5.68 -60 5 C-60.66 5 -61.32 5 -62 5 C-61.67 4.34 -61.34 3.68 -61 3 C-60.34 3.433125 -59.68 3.86625 -59 4.3125 C-47.07722206 11.01906259 -30.52838763 12.52073747 -17.30859375 9.0234375 C-14.4302372 7.82504128 -11.72948183 6.50356432 -9 5 C-7.43858281 4.2477483 -5.87619875 3.49749747 -4.3125 2.75 C-1.23310548 1.33141038 -1.23310548 1.33141038 0 0 Z " fill="#F3C439" transform="translate(1117,677)"/>
<path d="M0 0 C0 0.33 0 0.66 0 1 C-7.75 1.125 -7.75 1.125 -10 0 C-12.31215511 -0.09787095 -14.62718158 -0.13077623 -16.94140625 -0.1328125 C-17.62428207 -0.13376923 -18.3071579 -0.13472595 -19.01072693 -0.13571167 C-20.45401095 -0.13639223 -21.89729803 -0.1345466 -23.34057617 -0.13037109 C-25.55719828 -0.12501282 -27.77361852 -0.13032443 -29.99023438 -0.13671875 C-31.39062545 -0.13605811 -32.7910164 -0.13477723 -34.19140625 -0.1328125 C-36.11255249 -0.13112061 -36.11255249 -0.13112061 -38.07250977 -0.12939453 C-40.89012748 -0.33493704 -40.89012748 -0.33493704 -42 1 C-44.69235776 1.23678716 -47.36498156 1.42198025 -50.0625 1.5625 C-51.20041992 1.62727539 -51.20041992 1.62727539 -52.36132812 1.69335938 C-54.24065438 1.79973633 -56.12030244 1.90039934 -58 2 C-46.73816016 -9.26183984 -13.80584119 -3.77135174 0 0 Z " fill="#F3C848" transform="translate(1112,530)"/>
<path d="M0 0 C6.88180044 6.29528335 8.22625662 16.25797908 10 25 C10.17281494 25.71003174 10.34562988 26.42006348 10.52368164 27.15161133 C12.18813401 34.39327083 12.26427409 41.40582094 12.1875 48.8125 C12.18685547 50.01326172 12.18621094 51.21402344 12.18554688 52.45117188 C12.16049657 57.44731695 12.12695443 62.11390782 11 67 C10.67 67 10.34 67 10 67 C10.02094727 66.18023682 10.04189453 65.36047363 10.06347656 64.51586914 C10.66402136 43.71605687 10.66402136 43.71605687 6.97265625 23.34765625 C6 20 6 20 5.49609375 16.12109375 C5.33238281 15.09113281 5.16867187 14.06117188 5 13 C4.34 12.67 3.68 12.34 3 12 C0.93914358 7.87828716 -0.42161769 4.63779454 0 0 Z " fill="#D25A4F" transform="translate(954,579)"/>
<path d="M0 0 C0.85305168 2.90669462 1.07289715 5.31048873 0.87890625 8.328125 C0.83056641 9.12734375 0.78222656 9.9265625 0.73242188 10.75 C0.64831055 11.9875 0.64831055 11.9875 0.5625 13.25 C0.51029297 14.09046875 0.45808594 14.9309375 0.40429688 15.796875 C0.27504311 17.8649352 0.13825726 19.9325222 0 22 C0.66 22 1.32 22 2 22 C2.22786458 24.05078125 2.45572917 26.1015625 2.68359375 28.15234375 C2.81886614 30.01140229 2.81886614 30.01140229 4 31 C4.14115161 33.67058851 4.04247107 36.32432238 4 39 C4.66 39 5.32 39 6 39 C7.81242323 43.0188515 9.33501617 46.61110675 10 51 C7.14711255 48.49627191 5.64070833 45.74656841 3.9375 42.375 C3.43089844 41.39273438 2.92429687 40.41046875 2.40234375 39.3984375 C-1.05434258 31.02150963 -1.28684683 23.05077402 -1.1875 14.0625 C-1.18685547 12.92748047 -1.18621094 11.79246094 -1.18554688 10.62304688 C-1.1407804 2.2815608 -1.1407804 2.2815608 0 0 Z " fill="#FCEEB4" transform="translate(1029,612)"/>
<path d="M0 0 C0.66 0 1.32 0 2 0 C2.18175781 0.6290625 2.36351562 1.258125 2.55078125 1.90625 C2.80214844 2.7621875 3.05351563 3.618125 3.3125 4.5 C3.55613281 5.3353125 3.79976562 6.170625 4.05078125 7.03125 C4.98324449 10.1383209 4.98324449 10.1383209 6.578125 13.51953125 C8.74799848 19.25124698 8.4747931 25.13584684 8.4375 31.1875 C8.45748047 32.34958984 8.47746094 33.51167969 8.49804688 34.70898438 C8.49740234 35.82982422 8.49675781 36.95066406 8.49609375 38.10546875 C8.49794678 39.11762451 8.4997998 40.12978027 8.50170898 41.17260742 C7.87670671 44.69482218 6.39709379 46.40495649 4 49 C4.15936035 48.12851318 4.3187207 47.25702637 4.48291016 46.35913086 C6.81829464 31.18795281 6.0210265 16.10640494 0 2 C0 1.34 0 0.68 0 0 Z " fill="#EEC236" transform="translate(1135,597)"/>
<path d="M0 0 C5.16129457 4.34396347 6.90413944 11.57190015 8 18 C8.67497261 26.48610597 9.09116706 35.53932538 8 44 C7.34 44.66 6.68 45.32 6 46 C5.97494385 45.15703369 5.9498877 44.31406738 5.92407227 43.44555664 C5.82911845 40.32758326 5.72987552 37.20978497 5.62768555 34.09204102 C5.58428777 32.74085853 5.5426163 31.38961947 5.50268555 30.03833008 C5.44510048 28.09963299 5.38085702 26.16113724 5.31640625 24.22265625 C5.27974854 23.05484619 5.24309082 21.88703613 5.20532227 20.68383789 C5.29923812 18.08220205 5.29923812 18.08220205 4 17 C3.66666667 14.66666667 3.33333333 12.33333333 3 10 C2.67 9.67 2.34 9.34 2 9 C1.95936168 7.33382885 1.957279 5.66611905 2 4 C1.34 4 0.68 4 0 4 C0 2.68 0 1.36 0 0 Z " fill="#FDF5BF" transform="translate(1133,596)"/>
<path d="M0 0 C2.64 0 5.28 0 8 0 C0.30306626 7.69693374 -12.80614212 7.33248284 -22.92358398 7.34716797 C-29.6176709 7.31122584 -36.3085417 7.19130225 -43 7 C-43 6.67 -43 6.34 -43 6 C-42.44352783 5.98541748 -41.88705566 5.97083496 -41.3137207 5.95581055 C-27.35356173 5.55189224 -13.7831304 4.24081568 0 2 C0 1.34 0 0.68 0 0 Z " fill="#F6CD52" transform="translate(1112,721)"/>
<path d="M0 0 C0.66 0 1.32 0 2 0 C-1.01385608 16.16522807 -8.58072608 30.6474029 -18 44 C-18.495 42.515 -18.495 42.515 -19 41 C-17.53517488 38.44701907 -16.02169963 36.05585589 -14.375 33.625 C-9.80532255 26.62234462 -6.67016201 19.9450943 -4 12 C-3.4224619 10.47695649 -2.8399724 8.95577019 -2.25 7.4375 C-1.33858861 4.93111868 -0.609592 2.57947724 0 0 Z " fill="#5487D8" transform="translate(743,628)"/>
<path d="M0 0 C0.66 0 1.32 0 2 0 C3.53053364 12.65423351 3.44816538 25.2709359 2.1875 37.9375 C2.11748779 38.71295166 2.04747559 39.48840332 1.9753418 40.28735352 C1.73046875 42.46484375 1.73046875 42.46484375 1 46 C0.01 46.66 -0.98 47.32 -2 48 C-1 41 -1 41 -0.47094727 37.76147461 C0.02768392 33.7788874 0.12686579 29.88334863 0.09765625 25.87890625 C0.0962413 25.13414536 0.09482635 24.38938446 0.09336853 23.62205505 C0.08781989 21.26882727 0.07527733 18.9156985 0.0625 16.5625 C0.05747835 14.95638159 0.05291661 13.35026168 0.04882812 11.74414062 C0.03786735 7.82938957 0.02063884 3.91471151 0 0 Z " fill="#FEF5BF" transform="translate(1184,608)"/>
<path d="M0 0 C1.17832105 3.53496316 0.77102654 5.42085724 0.125 9.0625 C-0.05804688 10.12597656 -0.24109375 11.18945312 -0.4296875 12.28515625 C-1 15 -1 15 -2 17 C-2.09728734 18.90297705 -2.13076692 20.80938258 -2.1328125 22.71484375 C-2.13410156 23.87693359 -2.13539063 25.03902344 -2.13671875 26.23632812 C-2.13285156 27.45771484 -2.12898438 28.67910156 -2.125 29.9375 C-2.12886719 31.12408203 -2.13273437 32.31066406 -2.13671875 33.53320312 C-2.12879826 40.74480541 -1.8035984 47.83259786 -1 55 C-1.66 55 -2.32 55 -3 55 C-3.73671851 49.72628066 -4.12812222 44.65294487 -4.1328125 39.31640625 C-4.13376923 38.61660141 -4.13472595 37.91679657 -4.13571167 37.19578552 C-4.13638676 35.72777211 -4.13457974 34.25975559 -4.13037109 32.79174805 C-4.1250214 30.57138209 -4.13033488 28.35121911 -4.13671875 26.13085938 C-4.13970661 19.02482952 -4.00141641 12.04965363 -3 5 C-2.34 5 -1.68 5 -1 5 C-0.67 3.35 -0.34 1.7 0 0 Z " fill="#427FD9" transform="translate(496,541)"/>
<path d="M0 0 C0.33 0 0.66 0 1 0 C1.02505615 1.07483643 1.0501123 2.14967285 1.07592773 3.25708008 C1.17007495 7.24353022 1.27027785 11.22980909 1.37231445 15.21606445 C1.41563562 16.94160965 1.45731273 18.66719693 1.49731445 20.39282227 C1.55508526 22.87268764 1.61876003 25.35234172 1.68359375 27.83203125 C1.70030624 28.60400345 1.71701874 29.37597565 1.73423767 30.17134094 C1.82227895 33.35182933 1.98745195 35.96235584 3 39 C2.34 39.66 1.68 40.32 1 41 C-1.01417041 33.50855987 -1.27075897 26.54682009 -1.1875 18.8125 C-1.18685547 17.66330078 -1.18621094 16.51410156 -1.18554688 15.33007812 C-1.15822071 10.08649153 -0.96261231 5.16737968 0 0 Z " fill="#D46155" transform="translate(766,608)"/>
<path d="M0 0 C3.33626872 2.63142322 3.83488969 5.46456747 4.8125 9.5 C6.42261398 15.53949367 8.62924543 20.53804433 11.828125 25.890625 C13 28 13 28 13 30 C13.66 30 14.32 30 15 30 C14.67 31.32 14.34 32.64 14 34 C10.7357489 30.23355642 8.4879085 26.32316942 6.4375 21.8125 C6.13448975 21.15338623 5.83147949 20.49427246 5.51928711 19.81518555 C2.62136464 13.38171923 0 7.13002131 0 0 Z " fill="#D14F43" transform="translate(768,650)"/>
<path d="M0 0 C0.66 0 1.32 0 2 0 C6.0296831 7.94806154 6.50538969 14.81405556 6.25 23.625 C6.23195313 24.81996094 6.21390625 26.01492188 6.1953125 27.24609375 C6.1486112 30.16492527 6.0831334 33.08201761 6 36 C5.67 36 5.34 36 5 36 C4.95101562 35.15179687 4.90203125 34.30359375 4.8515625 33.4296875 C4.05454526 17.88177304 4.05454526 17.88177304 0 3 C0 2.01 0 1.02 0 0 Z " fill="#DE756B" transform="translate(917,600)"/>
<path d="M0 0 C-5.0577564 2.47882347 -8.51773754 3.34953057 -14.25390625 3.109375 C-14.91784897 3.08530579 -15.58179169 3.06123657 -16.26585388 3.03643799 C-18.36567384 2.95611793 -20.46368416 2.85299453 -22.5625 2.75 C-23.97325345 2.69521031 -25.38406172 2.64181335 -26.79492188 2.58984375 C-32.60095393 2.35637792 -38.27434401 2.06142118 -44 1 C-44 0.67 -44 0.34 -44 0 C-43.07251953 0.00523682 -42.14503906 0.01047363 -41.18945312 0.01586914 C-37.71548834 0.03301327 -34.24156918 0.04549965 -30.76757812 0.05493164 C-29.27017503 0.05992943 -27.77277673 0.0667299 -26.27539062 0.07543945 C-24.11066495 0.08770623 -21.94600435 0.09327397 -19.78125 0.09765625 C-18.48251953 0.10289307 -17.18378906 0.10812988 -15.84570312 0.11352539 C-13.03697417 0.03061154 -10.43857608 -0.16226152 -7.66992188 -0.53344727 C-4.57040538 -0.92748505 -2.85933739 -1.07225152 0 0 Z " fill="#F5ABA2" transform="translate(890,726)"/>
<path d="M0 0 C0.33 0.66 0.66 1.32 1 2 C-0.94041411 7.13639029 -3.68032944 9.71705038 -8 13 C-11.55800286 15.6386302 -11.55800286 15.6386302 -14.25 19.0625 C-17.08862179 22.20525984 -21.00263267 22.8938103 -25 24 C-22.59563974 20.39345961 -21.05320393 20.14547068 -17 19 C-17 18.34 -17 17.68 -17 17 C-11.52380952 12 -11.52380952 12 -9 12 C-8.61714844 11.14148438 -8.61714844 11.14148438 -8.2265625 10.265625 C-6.86912841 7.75826267 -5.28025896 5.8669544 -3.375 3.75 C-2.74335937 3.04359375 -2.11171875 2.3371875 -1.4609375 1.609375 C-0.97882813 1.07828125 -0.49671875 0.5471875 0 0 Z " fill="#FEF2BC" transform="translate(1165,688)"/>
<path d="M0 0 C0 0.99 0 1.98 0 3 C-1.37332284 3.62867668 -2.74875833 4.25273891 -4.125 4.875 C-4.89070313 5.22304688 -5.65640625 5.57109375 -6.4453125 5.9296875 C-11.69240505 8.12801068 -15.98719476 9.2478239 -21.7109375 9.1953125 C-22.95488281 9.18886719 -24.19882813 9.18242188 -25.48046875 9.17578125 C-26.76566406 9.15902344 -28.05085938 9.14226563 -29.375 9.125 C-30.68339844 9.11597656 -31.99179688 9.10695313 -33.33984375 9.09765625 C-36.5600837 9.07415085 -39.77994707 9.04129087 -43 9 C-43 8.34 -43 7.68 -43 7 C-42.37134033 7.02094727 -41.74268066 7.04189453 -41.0949707 7.06347656 C-24.91236115 7.64176742 -24.91236115 7.64176742 -9.328125 3.875 C-7 3 -7 3 -4 3 C-4 2.34 -4 1.68 -4 1 C-2 0 -2 0 0 0 Z " fill="#6498E7" transform="translate(1332,680)"/>
<path d="M0 0 C0.33 0 0.66 0 1 0 C1.79358635 3.49863614 2.12833425 6.7315709 2.1328125 10.31640625 C2.13506836 11.32219727 2.13732422 12.32798828 2.13964844 13.36425781 C2.13481445 14.41967773 2.12998047 15.47509766 2.125 16.5625 C2.12016602 17.64499023 2.11533203 18.72748047 2.11035156 19.84277344 C2.02033403 31.78630026 1.29120146 41.74308082 -3 53 C-4.13732426 49.59598052 -3.83989957 47.22543336 -3.0625 43.75 C-2.86785156 42.85796875 -2.67320312 41.9659375 -2.47265625 41.046875 C-2.31667969 40.37140625 -2.16070313 39.6959375 -2 39 C-1.34 39 -0.68 39 0 39 C0 26.13 0 13.26 0 0 Z " fill="#DA4135" transform="translate(963,611)"/>
<path d="M0 0 C0 0.33 0 0.66 0 1 C-0.65597168 1.01981934 -1.31194336 1.03963867 -1.98779297 1.06005859 C-4.95061069 1.15512507 -7.91270532 1.26487752 -10.875 1.375 C-12.42380859 1.42140625 -12.42380859 1.42140625 -14.00390625 1.46875 C-15.48310547 1.52675781 -15.48310547 1.52675781 -16.9921875 1.5859375 C-18.35899658 1.63306885 -18.35899658 1.63306885 -19.75341797 1.68115234 C-22.19931186 1.79882511 -22.19931186 1.79882511 -24 4 C-25.87939453 4.31884766 -25.87939453 4.31884766 -28.1328125 4.4140625 C-29.34130859 4.47207031 -29.34130859 4.47207031 -30.57421875 4.53125 C-31.83685547 4.57765625 -31.83685547 4.57765625 -33.125 4.625 C-34.39923828 4.68300781 -34.39923828 4.68300781 -35.69921875 4.7421875 C-37.79911684 4.83656494 -39.89952891 4.91937586 -42 5 C-33.39997341 -3.60002659 -11.04200181 -0.26968817 0 0 Z " fill="#DE6C61" transform="translate(878,527)"/>
<path d="M0 0 C0.33 0.99 0.66 1.98 1 3 C-1.03731626 5.26368473 -2.45943536 6.81506999 -5.375 7.8125 C-9.27378658 9.57623679 -11.41068848 12.67215633 -14 16 C-14.99 15.67 -15.98 15.34 -17 15 C-17.33 15.99 -17.66 16.98 -18 18 C-18.66 17.67 -19.32 17.34 -20 17 C-13.88749725 10.69031974 -7.50444137 4.61811777 0 0 Z " fill="#D75448" transform="translate(1534,540)"/>
<path d="M0 0 C2.19681012 3.29521518 3.09956003 6.28004402 4.21875 10.0390625 C4.82326856 12.18888035 4.82326856 12.18888035 7 13 C7.859375 14.75 7.859375 14.75 8.75 17 C10.60410986 21.38689389 12.95444639 25.09871157 15.73046875 28.95703125 C16.9993422 30.99894145 17.56195438 32.65144218 18 35 C11.25430479 28.60702088 7.03112164 20.43229456 3.0625 12.125 C2.75594482 11.49489014 2.44938965 10.86478027 2.13354492 10.21557617 C0.49300306 6.67153366 -0.3643463 3.91114601 0 0 Z " fill="#578BDA" transform="translate(1208,656)"/>
<path d="M0 0 C0.66 0 1.32 0 2 0 C2 0.66 2 1.32 2 2 C2.99 2.33 3.98 2.66 5 3 C5.94921875 4.99609375 5.94921875 4.99609375 6.6875 7.4375 C6.93886719 8.24058594 7.19023438 9.04367187 7.44921875 9.87109375 C8 12 8 12 8 14 C8.99 14.33 9.98 14.66 11 15 C13.43453604 21.08634009 13.59516924 27.51205436 14 34 C12.14984663 31.22476995 11.58462503 29.83611675 10.9375 26.6875 C10.77378906 25.89859375 10.61007812 25.1096875 10.44140625 24.296875 C9.91128679 21.5383773 9.42712835 18.77633427 9 16 C8.34 16 7.68 16 7 16 C4.62517344 10.68376389 2.27986574 5.3576845 0 0 Z " fill="#FCEDAA" transform="translate(1170,573)"/>
<path d="M0 0 C3 2 3 2 4.1875 5.5 C5.71758378 13.17570956 5.15118811 21.21381212 5 29 C4.34 29 3.68 29 3 29 C2.95101563 27.99582031 2.90203125 26.99164062 2.8515625 25.95703125 C2.38595753 17.1997868 1.52550338 8.64945607 0 0 Z " fill="#4F87DE" transform="translate(1354,607)"/>
<path d="M0 0 C0.33 0 0.66 0 1 0 C1.01981934 0.71430176 1.03963867 1.42860352 1.06005859 2.16455078 C1.56861988 21.17056329 1.56861988 21.17056329 4 40 C4.33484153 41.99974805 4.66858621 43.99968102 5 46 C4.01 45.67 3.02 45.34 2 45 C-0.19709521 29.99305506 -0.21919747 15.1448587 0 0 Z " fill="#85AEE9" transform="translate(493,558)"/>
<path d="M0 0 C-6.52983459 3.49819628 -11.76161815 4.56467061 -19.125 4.3125 C-19.97964844 4.30283203 -20.83429688 4.29316406 -21.71484375 4.28320312 C-35.61117099 4.03772269 -35.61117099 4.03772269 -40 0 C-38.56208484 0.14168137 -37.1246763 0.28851043 -35.6875 0.4375 C-34.88699219 0.51871094 -34.08648438 0.59992187 -33.26171875 0.68359375 C-31 1 -31 1 -28 2 C-25.42221879 2.14910414 -22.89103928 2.237937 -20.3125 2.25 C-19.59223633 2.25394775 -18.87197266 2.25789551 -18.12988281 2.26196289 C-11.98178044 2.19447014 -5.58882502 -1.83459256 0 0 Z " fill="#FEF3BE" transform="translate(1105,684)"/>
<path d="M0 0 C0.66 0 1.32 0 2 0 C1.78561279 0.54060059 1.57122559 1.08120117 1.3503418 1.63818359 C-1.44492548 9.58862356 -1.34455124 17.31807617 -1.1875 25.625 C-1.17241606 27.02472508 -1.15873425 28.424466 -1.14648438 29.82421875 C-1.11139121 33.21655844 -1.06222265 36.60806775 -1 40 C-4.41136192 36.58863808 -3.30359403 31.75300373 -3.32226562 27.14648438 C-3.32009033 26.43451904 -3.31791504 25.72255371 -3.31567383 24.98901367 C-3.31253697 22.83785245 -3.33588287 20.6880981 -3.36132812 18.53710938 C-3.36360367 17.15625172 -3.36430343 15.7753904 -3.36328125 14.39453125 C-3.36626221 13.14518799 -3.36924316 11.89584473 -3.37231445 10.60864258 C-2.94295587 6.44710213 -1.81793971 3.73832818 0 0 Z " fill="#F0C132" transform="translate(1030,604)"/>
<path d="M0 0 C1.36824364 2.73648727 0.38321293 4.2160275 -0.47949219 7.01220703 C-1.33683806 10.28636749 -1.44608258 13.56788863 -1.625 16.9375 C-1.66367188 17.62134766 -1.70234375 18.30519531 -1.7421875 19.00976562 C-1.83522412 20.67279513 -1.91863787 22.33635847 -2 24 C-2.66 24 -3.32 24 -4 24 C-4.10852923 21.12397545 -4.1875515 18.25209168 -4.25 15.375 C-4.28351563 14.56675781 -4.31703125 13.75851562 -4.3515625 12.92578125 C-4.44334063 7.2814263 -3.59967695 4.37913456 0 0 Z " fill="#DB5F55" transform="translate(1534,600)"/>
<path d="M0 0 C0 0.66 0 1.32 0 2 C-1.49609375 3.4375 -1.49609375 3.4375 -3.4375 5 C-6.15188238 7.14525044 -6.15188238 7.14525044 -8 10 C-8.99 10.33 -9.98 10.66 -11 11 C-11.70151152 12.3153341 -12.36525925 13.65117592 -13 15 C-14.375 16.8125 -14.375 16.8125 -16 18 C-18.1015625 17.57421875 -18.1015625 17.57421875 -20 17 C-3.30784708 0 -3.30784708 0 0 0 Z " fill="#5B8CDC" transform="translate(507,451)"/>
<path d="M0 0 C0.33 0 0.66 0 1 0 C0.84315071 10.97945061 -0.70058628 19.84640302 -5 30 C-5.33 30 -5.66 30 -6 30 C-5.88610125 28.20759337 -5.75852313 26.41605165 -5.625 24.625 C-5.55539062 23.62726562 -5.48578125 22.62953125 -5.4140625 21.6015625 C-5 19 -5 19 -3 17 C-2.45051478 15.17203399 -2.45051478 15.17203399 -2.1484375 13.0859375 C-2.01953125 12.32539062 -1.890625 11.56484375 -1.7578125 10.78125 C-1.63148437 9.9871875 -1.50515625 9.193125 -1.375 8.375 C-1.2409375 7.57320312 -1.106875 6.77140625 -0.96875 5.9453125 C-0.63865211 3.96472516 -0.31838917 1.98250325 0 0 Z " fill="#F1C028" transform="translate(1182,640)"/>
<path d="M0 0 C0.87840996 3.09720845 0.99435406 4.90645403 0 8 C-0.66 8 -1.32 8 -2 8 C-1.938125 9.051875 -1.938125 9.051875 -1.875 10.125 C-2.09037603 15.07864867 -4.12940084 19.45711633 -6 24 C-6.33 24 -6.66 24 -7 24 C-7.40762948 17.53616112 -6.2807412 13.29768435 -3.5 7.5 C-3.16613281 6.77296875 -2.83226562 6.0459375 -2.48828125 5.296875 C-1.67228705 3.52500187 -0.83802408 1.76156083 0 0 Z " fill="#528AE0" transform="translate(461,508)"/>
<path d="M0 0 C0 0.66 0 1.32 0 2 C-0.99 2 -1.98 2 -3 2 C-3.33 2.99 -3.66 3.98 -4 5 C-4.99 5 -5.98 5 -7 5 C-7 5.66 -7 6.32 -7 7 C-12.75 10 -12.75 10 -15 10 C-15.66 11.32 -16.32 12.64 -17 14 C-18.32 13.67 -19.64 13.34 -21 13 C-4.08333333 0 -4.08333333 0 0 0 Z " fill="#548AE0" transform="translate(528,437)"/>
<path d="M0 0 C0.33 0 0.66 0 1 0 C1.09765625 6.15234375 1.09765625 6.15234375 1 8 C0.67 8.33 0.34 8.66 0 9 C-0.23287008 10.68183948 -0.41264166 12.3712416 -0.5625 14.0625 C-0.64628906 14.98160156 -0.73007813 15.90070312 -0.81640625 16.84765625 C-0.87699219 17.55792969 -0.93757813 18.26820313 -1 19 C1.3431213 18.74438677 3.67843403 18.40729228 6 18 C6.33 17.34 6.66 16.68 7 16 C8.65 16 10.3 16 12 16 C11 18 11 18 8.05859375 19.0703125 C6.86363281 19.41835938 5.66867187 19.76640625 4.4375 20.125 C3.23996094 20.47820313 2.04242187 20.83140625 0.80859375 21.1953125 C-0.11824219 21.46085938 -1.04507812 21.72640625 -2 22 C-2.05454409 19.64551325 -2.0939279 17.29232125 -2.125 14.9375 C-2.14820313 13.62652344 -2.17140625 12.31554687 -2.1953125 10.96484375 C-1.99417522 6.88175701 -1.27165462 3.85000947 0 0 Z " fill="#FAD8D2" transform="translate(1534,602)"/>
<path d="M0 0 C0.66 0.33 1.32 0.66 2 1 C2 5.95 2 10.9 2 16 C-3 17 -3 17 -6 17 C-6 15.68 -6 14.36 -6 13 C-4.68 13.33 -3.36 13.66 -2 14 C-2 14.66 -2 15.32 -2 16 C-1.34 16 -0.68 16 0 16 C0 10.72 0 5.44 0 0 Z " fill="#4D88DB" transform="translate(1354,534)"/>
<path d="M0 0 C2.20798544 4.18441745 3.41509499 8.46139295 4.6875 13 C4.92533203 13.80695312 5.16316406 14.61390625 5.40820312 15.4453125 C5.62798828 16.22648438 5.84777344 17.00765625 6.07421875 17.8125 C6.27619873 18.52019531 6.47817871 19.22789062 6.6862793 19.95703125 C7.0398634 22.25959297 6.70639496 23.79889184 6 26 C6 25.01 6 24.02 6 23 C5.34 23 4.68 23 4 23 C3.3267344 20.10555905 2.66119596 17.20969987 2 14.3125 C1.80921875 13.49587891 1.6184375 12.67925781 1.421875 11.83789062 C0.51266084 7.82760674 -0.27000098 4.14282748 0 0 Z " fill="#6998DE" transform="translate(449,594)"/>
<path d="M0 0 C-10.95556339 3.94541189 -20.49157366 4.46973169 -32 4 C-32 3.67 -32 3.34 -32 3 C-31.15179687 2.96261719 -30.30359375 2.92523437 -29.4296875 2.88671875 C-21.6567471 2.45109242 -14.53219879 1.41192144 -6.9609375 -0.4765625 C-4.14686515 -0.97403703 -2.64402917 -0.96732775 0 0 Z " fill="#6599E7" transform="translate(1324,724)"/>
<path d="M0 0 C0.33 0 0.66 0 1 0 C0.38019315 15.40968055 0.38019315 15.40968055 -3 21 C-3.99 21.33 -4.98 21.66 -6 22 C-5.81824219 21.41734375 -5.63648438 20.8346875 -5.44921875 20.234375 C-3.39764489 13.54308794 -1.64771106 6.80119035 0 0 Z " fill="#6995DD" transform="translate(1356,637)"/>
<path d="M0 0 C-2.69553492 1.23321941 -5.39293811 2.46196363 -8.09375 3.68359375 C-9.80588189 4.45911585 -11.51542748 5.24047233 -13.21875 6.03515625 C-14.78681257 6.74942204 -16.39089251 7.38374607 -18 8 C-18.66 7.67 -19.32 7.34 -20 7 C-18.60804085 4.2160817 -16.84424221 4.02101003 -14 3 C-14.33 2.34 -14.66 1.68 -15 1 C-14.113125 1.04125 -13.22625 1.0825 -12.3125 1.125 C-9.0404722 1.18948721 -9.0404722 1.18948721 -6.375 -0.0625 C-3.64647688 -1.1395486 -2.72300678 -0.82149783 0 0 Z " fill="#DB5A4D" transform="translate(1604,631)"/>
<path d="M0 0 C-8.27154682 3.50236667 -16.6007229 6.81640303 -25 10 C-24.67 9.01 -24.34 8.02 -24 7 C-21.5 5.875 -21.5 5.875 -19 5 C-18.67 4.67 -18.34 4.34 -18 4 C-16.33382885 3.95936168 -14.66611905 3.957279 -13 4 C-13 3.34 -13 2.68 -13 2 C-11.329375 1.5359375 -11.329375 1.5359375 -9.625 1.0625 C-2.96511628 -0.88953488 -2.96511628 -0.88953488 0 0 Z " fill="#D84D40" transform="translate(1633,619)"/>
<path d="M0 0 C8.75918609 0.96884903 15.51049334 4.60959954 23 9 C21.68 9.33 20.36 9.66 19 10 C19 9.34 19 8.68 19 8 C18.29101562 7.87367188 17.58203125 7.74734375 16.8515625 7.6171875 C13.92188591 6.98309311 11.19864504 6.1284441 8.375 5.125 C7.43398438 4.79757812 6.49296875 4.47015625 5.5234375 4.1328125 C3.06983075 3.03134817 1.72594173 2.02711277 0 0 Z " fill="#568ADF" transform="translate(658,426)"/>
<path d="M0 0 C5.34844008 0.53484401 9.35796103 2.46690767 14 5 C14 5.66 14 6.32 14 7 C16.31 7.33 18.62 7.66 21 8 C20.67 8.66 20.34 9.32 20 10 C15.13127946 9.40440894 11.40671159 7.27522585 7.1875 4.9375 C6.49462891 4.56044922 5.80175781 4.18339844 5.08789062 3.79492188 C3.38871015 2.86916148 1.69390575 1.93537688 0 1 C0 0.67 0 0.34 0 0 Z " fill="#568EE1" transform="translate(526,706)"/>
<path d="M0 0 C-18.8445146 9.3851618 -18.8445146 9.3851618 -26 7 C-24.205625 6.4121875 -24.205625 6.4121875 -22.375 5.8125 C-19.35426179 4.81681081 -16.3709139 3.76511396 -13.390625 2.65234375 C-12.76881348 2.42119873 -12.14700195 2.19005371 -11.50634766 1.9519043 C-9.68155999 1.27110174 -7.86024689 0.58100863 -6.0390625 -0.109375 C-3 -1 -3 -1 0 0 Z " fill="#578BE0" transform="translate(1347,808)"/>
<path d="M0 0 C0.33 0 0.66 0 1 0 C1.02505615 0.62455078 1.0501123 1.24910156 1.07592773 1.89257812 C1.19300381 4.76187123 1.31521751 7.63092425 1.4375 10.5 C1.47681641 11.48226562 1.51613281 12.46453125 1.55664062 13.4765625 C1.79760617 19.0373059 2.21921169 24.48855309 3 30 C2.34 30 1.68 30 1 30 C-0.40912096 27.18175808 -0.11183553 24.82748718 -0.09765625 21.6796875 C-0.09443359 20.42285156 -0.09121094 19.16601562 -0.08789062 17.87109375 C-0.07951172 16.55238281 -0.07113281 15.23367188 -0.0625 13.875 C-0.05748489 12.53515789 -0.05292201 11.195314 -0.04882812 9.85546875 C-0.03701086 6.57026794 -0.02053617 3.28515603 0 0 Z " fill="#76A3E8" transform="translate(1247,618)"/>
<path d="M0 0 C1.99954746 -0.04254356 4.00041636 -0.04080783 6 0 C7 1 7 1 7.0625 4.5625 C7.041875 5.696875 7.02125 6.83125 7 8 C6.34 8 5.68 8 5 8 C5 10.97 5 13.94 5 17 C4.34 17 3.68 17 3 17 C2.67 17.66 2.34 18.32 2 19 C2.67581523 12.91766294 3.73638028 6.98685848 5 1 C3.35 1 1.7 1 0 1 C0 0.67 0 0.34 0 0 Z " fill="#5D91E1" transform="translate(702,599)"/>
<path d="M0 0 C3.86055058 2.81373462 6.30356165 5.56915631 8.8125 9.625 C9.41707031 10.58664062 10.02164062 11.54828125 10.64453125 12.5390625 C12 15 12 15 12 17 C11.01 16.67 10.02 16.34 9 16 C8.67 14.35 8.34 12.7 8 11 C7.01 10.67 6.02 10.34 5 10 C4.67 8.35 4.34 6.7 4 5 C2.68 4.67 1.36 4.34 0 4 C0 2.68 0 1.36 0 0 Z " fill="#F2CA4E" transform="translate(1159,559)"/>
<path d="M0 0 C1.99954746 -0.04254356 4.00041636 -0.04080783 6 0 C6.33 0.33 6.66 0.66 7 1 C8.99782126 1.15825258 11.00088834 1.25119171 13.00390625 1.31640625 C14.21884766 1.35830078 15.43378906 1.40019531 16.68554688 1.44335938 C17.96494141 1.48267578 19.24433594 1.52199219 20.5625 1.5625 C21.84576172 1.60568359 23.12902344 1.64886719 24.45117188 1.69335938 C27.63399853 1.799848 30.81690674 1.90185962 34 2 C34 2.33 34 2.66 34 3 C24.1 3 14.2 3 4 3 C4 2.34 4 1.68 4 1 C2.68 0.67 1.36 0.34 0 0 Z " fill="#FFFAD0" transform="translate(1062,726)"/>
<path d="M0 0 C0.66 0.33 1.32 0.66 2 1 C2 1.66 2 2.32 2 3 C0.576875 3.12375 0.576875 3.12375 -0.875 3.25 C-2.421875 3.62125 -2.421875 3.62125 -4 4 C-5.09166275 5.93330603 -5.09166275 5.93330603 -6 8 C-8.65734652 9.46853361 -10.15874295 10.1776662 -13.1640625 9.54296875 C-13.76992187 9.36378906 -14.37578125 9.18460938 -15 9 C-13.50146484 8.15115234 -13.50146484 8.15115234 -11.97265625 7.28515625 C-10.66922254 6.5443558 -9.36583975 5.80346575 -8.0625 5.0625 C-7.40314453 4.68931641 -6.74378906 4.31613281 -6.06445312 3.93164062 C-2.84167167 2.23037187 -2.84167167 2.23037187 0 0 Z " fill="#F9CFCA" transform="translate(1645,709)"/>
<path d="M0 0 C2.79182337 1.66933768 3.86874966 2.64425583 5.01171875 5.7421875 C5.23472656 6.77601563 5.45773437 7.80984375 5.6875 8.875 C5.91824219 9.90367187 6.14898438 10.93234375 6.38671875 11.9921875 C6.93073043 14.66027024 7.47261626 17.32857958 8 20 C4.74680494 18.37340247 4.14022939 14.92321822 2.875 11.6875 C2.59785156 11.01009766 2.32070313 10.33269531 2.03515625 9.63476562 C0.65859576 6.16624004 0 3.78176393 0 0 Z " fill="#F1C94D" transform="translate(988,656)"/>
<path d="M0 0 C2.00965505 6.55782174 0.46752853 13.74892772 -2 20 C-2.66 20 -3.32 20 -4 20 C-3.56615452 12.96871122 -2.25678003 6.670985 0 0 Z " fill="#749FE1" transform="translate(453,528)"/>
<path d="M0 0 C0.66 0 1.32 0 2 0 C2.5775 1.175625 3.155 2.35125 3.75 3.5625 C7.18362901 10.75873581 7.18362901 10.75873581 12 17 C11.67 17.99 11.34 18.98 11 20 C0 4.92134831 0 4.92134831 0 0 Z " fill="#5186D8" transform="translate(1213,761)"/>
<path d="M0 0 C0.66 0.33 1.32 0.66 2 1 C-4.03725032 5.37481908 -9.97339186 8.50621423 -17 11 C-17 10.34 -17 9.68 -17 9 C-16.34 9 -15.68 9 -15 9 C-15 8.34 -15 7.68 -15 7 C-13.2365625 6.38125 -13.2365625 6.38125 -11.4375 5.75 C-8.46969832 4.65354751 -5.82927661 3.38964561 -3.125 1.75 C-2.09375 1.1725 -1.0625 0.595 0 0 Z " fill="#4E84DA" transform="translate(687,704)"/>
<path d="M0 0 C0 0.99 0 1.98 0 3 C-2.95079533 5.22948981 -5.48579624 6.82859875 -9 8 C-11.1875 7.0625 -11.1875 7.0625 -13 6 C-11.21118264 4.99491199 -9.41885304 3.99607264 -7.625 3 C-6.62726563 2.443125 -5.62953125 1.88625 -4.6015625 1.3125 C-2 0 -2 0 0 0 Z " fill="#D4E9FB" transform="translate(1356,803)"/>
<path d="M0 0 C0.33 0.66 0.66 1.32 1 2 C0.0405998 4.0197899 -0.97173464 6.01438414 -2 8 C-3.38468171 11.31334551 -4.69719517 14.65370943 -6 18 C-6.33 18 -6.66 18 -7 18 C-6.63495936 12.33557626 -5.9445679 7.99296295 -3 3 C-2.34 3 -1.68 3 -1 3 C-0.67 2.01 -0.34 1.02 0 0 Z " fill="#FEF6CA" transform="translate(996,575)"/>
<path d="M0 0 C0 0.66 0 1.32 0 2 C-3.1999003 5.01704885 -5.61537866 6.49890042 -10 7 C-10 7.99 -10 8.98 -10 10 C-10.99 10 -11.98 10 -13 10 C-13 10.66 -13 11.32 -13 12 C-14.32 12.33 -15.64 12.66 -17 13 C-16.67 12.34 -16.34 11.68 -16 11 C-15.34 11 -14.68 11 -14 11 C-14 10.34 -14 9.68 -14 9 C-13.34 9 -12.68 9 -12 9 C-11.67 8.01 -11.34 7.02 -11 6 C-8.9375 5.3125 -8.9375 5.3125 -7 5 C-7 4.34 -7 3.68 -7 3 C-2.61538462 0 -2.61538462 0 0 0 Z " fill="#F1C842" transform="translate(1030,543)"/>
<path d="M0 0 C7.26 0 14.52 0 22 0 C22 0.33 22 0.66 22 1 C19.27227014 1.39096459 16.54411534 1.76316706 13.8125 2.125 C12.65911133 2.29322266 12.65911133 2.29322266 11.48242188 2.46484375 C7.06544686 3.03355298 4.06104497 3.197359 0 1 C0 0.67 0 0.34 0 0 Z " fill="#588DE3" transform="translate(590,685)"/>
<path d="M0 0 C0.33 0.66 0.66 1.32 1 2 C-0.24049755 5.66277088 -2.10621553 7.00190039 -5.4375 8.8125 C-6.21996094 9.25207031 -7.00242187 9.69164062 -7.80859375 10.14453125 C-10 11 -10 11 -13 10 C-12.22914063 9.44570313 -11.45828125 8.89140625 -10.6640625 8.3203125 C-9.66117188 7.59585938 -8.65828125 6.87140625 -7.625 6.125 C-6.62726562 5.40570312 -5.62953125 4.68640625 -4.6015625 3.9453125 C-2.00530106 2.1005342 -2.00530106 2.1005342 0 0 Z " fill="#D95A4C" transform="translate(905,671)"/>
<path d="M0 0 C0.33 0 0.66 0 1 0 C1.36625971 4.51720311 1.36625971 4.51720311 -0.375 6.8125 C-2 8 -2 8 -4 8 C-4.309375 8.94875 -4.61875 9.8975 -4.9375 10.875 C-6 14 -6 14 -7 16 C-7.66 16 -8.32 16 -9 16 C-7.53239731 9.8034553 -3.88851943 4.93130534 0 0 Z " fill="#D76960" transform="translate(1508,564)"/>
<path d="M0 0 C3.14958831 3.42346555 3.56179109 6.44262737 4 11 C1.69 11.66 -0.62 12.32 -3 13 C-3 12.34 -3 11.68 -3 11 C-2.01 10.34 -1.02 9.68 0 9 C0.36362818 6.79274927 0.36362818 6.79274927 0.1875 4.375 C0.14689453 3.14910156 0.14689453 3.14910156 0.10546875 1.8984375 C0.07066406 1.27195312 0.03585937 0.64546875 0 0 Z " fill="#D34D42" transform="translate(1668,592)"/>
<path d="M0 0 C4.71643466 4.23131567 7.1979917 10.78443569 8 17 C6 16 6 16 5 13 C4.34 12.67 3.68 12.34 3 12 C0.93914358 7.87828716 -0.42161769 4.63779454 0 0 Z " fill="#DA6761" transform="translate(954,579)"/>
<path d="M0 0 C0.84755859 0.04833984 1.69511719 0.09667969 2.56835938 0.14648438 C3.44943359 0.20255859 4.33050781 0.25863281 5.23828125 0.31640625 C6.13095703 0.36861328 7.02363281 0.42082031 7.94335938 0.47460938 C10.14619685 0.60418805 12.34856998 0.73914871 14.55078125 0.87890625 C14.55078125 1.20890625 14.55078125 1.53890625 14.55078125 1.87890625 C13.34421875 1.93949219 12.13765625 2.00007812 10.89453125 2.0625 C9.27994001 2.14698443 7.66535711 2.23162836 6.05078125 2.31640625 C4.86355469 2.37538086 4.86355469 2.37538086 3.65234375 2.43554688 C-1.42307316 2.70595843 -6.4129732 3.19162045 -11.44921875 3.87890625 C-10.12921875 3.54890625 -8.80921875 3.21890625 -7.44921875 2.87890625 C-7.44921875 2.21890625 -7.44921875 1.55890625 -7.44921875 0.87890625 C-4.52252184 -0.09665939 -3.00860554 -0.18172785 0 0 Z " fill="#6195E6" transform="translate(1295.44921875,565.12109375)"/>
<path d="M0 0 C4.43615796 1.13078536 8.34418862 2.17980265 12 5 C12.71780924 6.64528785 13.39119963 8.31133653 14 10 C12.22611914 8.90073597 10.45600316 7.79539498 8.6875 6.6875 C7.20830078 5.76517578 7.20830078 5.76517578 5.69921875 4.82421875 C3.49827965 3.33675339 1.76671012 1.9596614 0 0 Z " fill="#FEF1BE" transform="translate(1136,540)"/>
<path d="M0 0 C0.33 0 0.66 0 1 0 C0.69870795 7.08036317 -0.36466063 13.79485177 -4 20 C-4.99 20.33 -5.98 20.66 -7 21 C-5.90075692 18.20961373 -4.75741452 15.47439813 -3.5 12.75 C-1.71289824 8.6405731 -0.84521853 4.3851926 0 0 Z " fill="#5286D8" transform="translate(1352,736)"/>
<path d="M0 0 C0.66 0 1.32 0 2 0 C2 8.25 2 16.5 2 25 C1.67 25 1.34 25 1 25 C1 17.74 1 10.48 1 3 C-0.32 3.33 -1.64 3.66 -3 4 C-1.625 2 -1.625 2 0 0 Z " fill="#C0DAFA" transform="translate(1352,705)"/>
<path d="M0 0 C0.33 0.66 0.66 1.32 1 2 C0.06421005 4.35981813 -0.93347808 6.69631264 -2 9 C-3.32 9 -4.64 9 -6 9 C-6 9.66 -6 10.32 -6 11 C-7.65 11.33 -9.3 11.66 -11 12 C-10.29875 11.319375 -9.5975 10.63875 -8.875 9.9375 C-5.72065663 6.79219487 -2.86065696 3.4111614 0 0 Z " fill="#5C90E3" transform="translate(1343,668)"/>
<path d="M0 0 C0.33 0 0.66 0 1 0 C0.91227545 1.89666526 0.80408699 3.79238993 0.6875 5.6875 C0.62949219 6.74324219 0.57148437 7.79898438 0.51171875 8.88671875 C-0.03782064 12.23009964 -1.08674018 14.23526262 -3 17 C-3.66 16.67 -4.32 16.34 -5 16 C-4.80664062 15.43152344 -4.61328125 14.86304688 -4.4140625 14.27734375 C-2.81863577 9.54635062 -1.33099414 4.81205575 0 0 Z " fill="#5E8FDC" transform="translate(703,618)"/>
<path d="M0 0 C2.15178156 2.76387192 3.98370421 5.56533069 5.6875 8.625 C6.34298828 9.78902344 6.34298828 9.78902344 7.01171875 10.9765625 C8 13 8 13 8 15 C5 14 5 14 3.61328125 11.85546875 C3.18402344 10.97503906 2.75476563 10.09460938 2.3125 9.1875 C1.87550781 8.31480469 1.43851562 7.44210937 0.98828125 6.54296875 C0 4 0 4 0 0 Z " fill="#5E91E0" transform="translate(504,621)"/>
<path d="M0 0 C0.33 0.66 0.66 1.32 1 2 C-5.92938497 10.81548975 -5.92938497 10.81548975 -12 12 C-8 8 -4 4 0 0 Z " fill="#FAD4CF" transform="translate(1659,697)"/>
<path d="M0 0 C-2.21227968 2.21227968 -3.92876494 2.95767096 -6.8125 4.125 C-8.09060547 4.65480469 -8.09060547 4.65480469 -9.39453125 5.1953125 C-12.08019292 6.02476723 -14.20789919 6.15038245 -17 6 C-16.34 5.67 -15.68 5.34 -15 5 C-15 4.34 -15 3.68 -15 3 C-11.97265625 2.26757812 -11.97265625 2.26757812 -8.9453125 1.53515625 C-3.07117812 -0.08082048 -3.07117812 -0.08082048 0 0 Z " fill="#D7483B" transform="translate(1563,647)"/>
<path d="M0 0 C0.96661363 3.12180401 0.98988909 5.52083795 0.5625 8.75 C0.46066406 9.54921875 0.35882812 10.3484375 0.25390625 11.171875 C0.12822266 12.07679688 0.12822266 12.07679688 0 13 C-0.66 13 -1.32 13 -2 13 C-2.33 14.98 -2.66 16.96 -3 19 C-4.34247691 15.28581387 -3.63869571 12.69003413 -2.625 8.9375 C-2.34914063 7.89464844 -2.07328125 6.85179687 -1.7890625 5.77734375 C-1.23810614 3.83808647 -0.63751641 1.91254923 0 0 Z " fill="#EEC944" transform="translate(989,593)"/>
<path d="M0 0 C7.15624818 0.91746772 13.99215722 2.93017102 20 7 C17.12382735 7 15.48678142 6.61048208 12.8125 5.6875 C12.02617188 5.41679688 11.23984375 5.14609375 10.4296875 4.8671875 C6.93619911 3.62031544 3.4653448 2.32313165 0 1 C0 0.67 0 0.34 0 0 Z " fill="#FCEDA8" transform="translate(1112,530)"/>
<path d="M0 0 C-4.8665458 3.34169478 -9.63324933 6.52303815 -15 9 C-15 8.01 -15 7.02 -15 6 C-13.865625 5.54625 -12.73125 5.0925 -11.5625 4.625 C-7.95278308 3.42904194 -7.95278308 3.42904194 -7 1 C-4.01793274 -0.8886426 -3.49368922 -1.16456307 0 0 Z " fill="#4D85DC" transform="translate(1363,798)"/>
<path d="M0 0 C0.66 0 1.32 0 2 0 C0.9007105 6.31121503 -0.58137942 12.06338584 -3 18 C-3.33 18 -3.66 18 -4 18 C-4.34656486 13.37913515 -3.49605732 10.1209495 -1.75390625 5.9296875 C-0.98980198 3.9738973 -0.46803132 2.04479705 0 0 Z " fill="#6090D9" transform="translate(1389,750)"/>
<path d="M0 0 C0.33 0 0.66 0 1 0 C1.05449838 1.72880982 1.09301688 3.45812712 1.125 5.1875 C1.14820313 6.15042969 1.17140625 7.11335937 1.1953125 8.10546875 C0.9913544 11.12812778 0.26874632 13.26769985 -1 16 C-1.66 16 -2.32 16 -3 16 C-2.30834212 10.58201328 -1.24200752 5.3177215 0 0 Z " fill="#D5E8FD" transform="translate(1394,736)"/>
<path d="M0 0 C0 3.52119695 -1.02843078 4.94379819 -3.2890625 7.5703125 C-6.38822457 10.16002327 -10.13778222 11.04075637 -14 12 C-11.59563974 8.39345961 -10.05320393 8.14547068 -6 7 C-6 6.34 -6 5.68 -6 5 C-4.04072937 3.2856382 -2.04119788 1.61594832 0 0 Z " fill="#FBEAAA" transform="translate(1154,700)"/>
<path d="M0 0 C2.1875 -0.5 2.1875 -0.5 5 0 C7.01271839 2.48053942 8.51887086 5.17640062 10 8 C7 8 7 8 4.4375 5.6875 C2 3 2 3 0 0 Z " fill="#DB534D" transform="translate(793,697)"/>
<path d="M0 0 C0.33 0.66 0.66 1.32 1 2 C0.0625 4.625 0.0625 4.625 -1 7 C-1.66 7 -2.32 7 -3 7 C-3 7.66 -3 8.32 -3 9 C-4.32 9.33 -5.64 9.66 -7 10 C-7 10.66 -7 11.32 -7 12 C-7.99 11.67 -8.98 11.34 -10 11 C-9.34 11 -8.68 11 -8 11 C-7.73445312 10.41734375 -7.46890625 9.8346875 -7.1953125 9.234375 C-5.96697004 6.93825772 -4.59685061 5.19643982 -2.875 3.25 C-2.33617187 2.63640625 -1.79734375 2.0228125 -1.2421875 1.390625 C-0.62730469 0.70226562 -0.62730469 0.70226562 0 0 Z " fill="#6294E1" transform="translate(690,646)"/>
<path d="M0 0 C0.33 0.99 0.66 1.98 1 3 C-1.09319075 7.04473701 -3.52326548 10.48635321 -7.875 12 C-8.57625 12 -9.2775 12 -10 12 C-9.61328125 11.55269531 -9.2265625 11.10539063 -8.828125 10.64453125 C-5.81609925 7.1478974 -2.85678969 3.62592537 0 0 Z " fill="#578CE2" transform="translate(1344,757)"/>
<path d="M0 0 C0.66 0 1.32 0 2 0 C1.02541328 5.80165739 -0.01253155 10.83982722 -3 16 C-3.33 16 -3.66 16 -4 16 C-3.25 8.375 -3.25 8.375 -1 5 C-0.61500109 3.34450469 -0.27206865 1.6777567 0 0 Z " fill="#C9E3FA" transform="translate(1350,738)"/>
<path d="M0 0 C1.32 0.33 2.64 0.66 4 1 C2.44333045 1.9884096 0.87937574 2.96535082 -0.6875 3.9375 C-1.55761719 4.48277344 -2.42773438 5.02804687 -3.32421875 5.58984375 C-5.94624689 6.97167172 -8.08310075 7.58480173 -11 8 C-11 7.34 -11 6.68 -11 6 C-9.68 6 -8.36 6 -7 6 C-7 5.34 -7 4.68 -7 4 C-6.01 4 -5.02 4 -4 4 C-4 3.34 -4 2.68 -4 2 C-2.68 2 -1.36 2 0 2 C0 1.34 0 0.68 0 0 Z " fill="#4F88DE" transform="translate(1336,715)"/>
<path d="M0 0 C0.66 0 1.32 0 2 0 C0.63919813 5.19578896 -1.41210248 8.13611036 -5 12 C-5.33 12 -5.66 12 -6 12 C-6 10.35 -6 8.7 -6 7 C-4.68 6.67 -3.36 6.34 -2 6 C-2 4.68 -2 3.36 -2 2 C-1.34 2 -0.68 2 0 2 C0 1.34 0 0.68 0 0 Z " fill="#FEFAD0" transform="translate(1131,658)"/>
<path d="M0 0 C0.66 0.33 1.32 0.66 2 1 C1.31292969 1.40992188 0.62585937 1.81984375 -0.08203125 2.2421875 C-1.43361328 3.05042969 -1.43361328 3.05042969 -2.8125 3.875 C-4.15248047 4.67550781 -4.15248047 4.67550781 -5.51953125 5.4921875 C-7.37294724 6.61883092 -9.19529917 7.79686611 -11 9 C-11 7.68 -11 6.36 -11 5 C-9.21289414 4.13633178 -7.4201535 3.28431406 -5.625 2.4375 C-4.62726563 1.96183594 -3.62953125 1.48617187 -2.6015625 0.99609375 C-1.74304687 0.66738281 -0.88453125 0.33867188 0 0 Z " fill="#FBCFC9" transform="translate(1551,652)"/>
<path d="M0 0 C0.99 0.33 1.98 0.66 3 1 C5.43453604 7.08634009 5.59516924 13.51205436 6 20 C4.15473507 17.23210261 3.62017385 15.94105556 3 12.8125 C2.1108159 8.50771984 1.08430598 4.2597735 0 0 Z " fill="#FDF3C4" transform="translate(1178,587)"/>
<path d="M0 0 C-1 2 -1 2 -3.5625 3.125 C-7.58289462 4.14837318 -10.86509813 4.14258282 -15 4 C-10.09731431 0.73154287 -5.86826297 -0.27944109 0 0 Z " fill="#548CE7" transform="translate(652,678)"/>
<path d="M0 0 C0.27457031 0.55429687 0.54914063 1.10859375 0.83203125 1.6796875 C1.64634869 3.2974285 2.47853214 4.90624671 3.32421875 6.5078125 C3.77410156 7.37148438 4.22398438 8.23515625 4.6875 9.125 C5.14511719 9.99382813 5.60273437 10.86265625 6.07421875 11.7578125 C6.37972656 12.49773438 6.68523437 13.23765625 7 14 C6.67 14.66 6.34 15.32 6 16 C5.7525 15.05125 5.505 14.1025 5.25 13.125 C4.3142923 9.91306809 4.3142923 9.91306809 1.875 8.625 C1.25625 8.41875 0.6375 8.2125 0 8 C0 5.36 0 2.72 0 0 Z " fill="#F1C93E" transform="translate(1029,644)"/>
<path d="M0 0 C0 3.51700839 -0.69225467 4.36436147 -2.75 7.125 C-3.26046875 7.82882812 -3.7709375 8.53265625 -4.296875 9.2578125 C-6.19467845 11.19914355 -7.35107221 11.61993645 -10 12 C-7.11954533 7.34695784 -3.96084779 3.78080926 0 0 Z " fill="#6495DA" transform="translate(1235,553)"/>
<path d="M0 0 C0.33 0.99 0.66 1.98 1 3 C-3.95 3 -8.9 3 -14 3 C-8.91255851 0.45627925 -5.67638973 -0.12900886 0 0 Z " fill="#FCD8D0" transform="translate(1614,725)"/>
<path d="M0 0 C6.258654 -0.5326514 10.45108785 1.18150494 16 4 C12.11764181 5.49828872 9.56550712 4.43110582 5.75 3.0625 C4.67234375 2.68222656 3.5946875 2.30195312 2.484375 1.91015625 C1.66453125 1.60980469 0.8446875 1.30945313 0 1 C0 0.67 0 0.34 0 0 Z " fill="#6899E6" transform="translate(548,717)"/>
<path d="M0 0 C0.66 0.33 1.32 0.66 2 1 C-2.22789256 6.35533057 -6.37226593 7.1377511 -13 8 C-11.53805963 5.07611926 -9.46085219 4.71570294 -6.5 3.4375 C-2.99987005 2.10898973 -2.99987005 2.10898973 0 0 Z " fill="#F5CA4E" transform="translate(1117,677)"/>
<path d="M0 0 C0.66 0.99 1.32 1.98 2 3 C1.34 3 0.68 3 0 3 C-0.04898437 3.60328125 -0.09796875 4.2065625 -0.1484375 4.828125 C-0.22320313 5.62734375 -0.29796875 6.4265625 -0.375 7.25 C-0.44460938 8.03890625 -0.51421875 8.8278125 -0.5859375 9.640625 C-1.01507113 12.085877 -1.78600638 13.84836903 -3 16 C-4.92932559 9.89046896 -2.54092546 5.51806129 0 0 Z " fill="#D56055" transform="translate(1497,583)"/>
<path d="M0 0 C1.28222189 3.03070628 0.98589446 4.03596914 -0.25 7.1875 C-2 10 -2 10 -5 11 C-4.54917531 9.53932801 -4.08906463 8.08151968 -3.625 6.625 C-3.36976563 5.81289063 -3.11453125 5.00078125 -2.8515625 4.1640625 C-2 2 -2 2 0 0 Z " fill="#F1C439" transform="translate(1000,571)"/>
<path d="M0 0 C1.39195915 4.17587745 -0.17676781 6.13474776 -2 10 C-2.66 10 -3.32 10 -4 10 C-4 10.66 -4 11.32 -4 12 C-4.66 12 -5.32 12 -6 12 C-4.68139111 7.38486888 -2.78644563 3.90102388 0 0 Z " fill="#5E8FDF" transform="translate(473,486)"/>
<path d="M0 0 C3.3 0.33 6.6 0.66 10 1 C9.34 2.32 8.68 3.64 8 5 C6.68 5 5.36 5 4 5 C1.75 2.5 1.75 2.5 0 0 Z " fill="#5B8ADB" transform="translate(676,483)"/>
<path d="M0 0 C0.33 1.32 0.66 2.64 1 4 C-0.9375 6.75 -0.9375 6.75 -3 9 C-4.32 8.67 -5.64 8.34 -7 8 C-4.69 5.36 -2.38 2.72 0 0 Z " fill="#FBDFD9" transform="translate(1667,688)"/>
<path d="M0 0 C0.66 0 1.32 0 2 0 C2 0.66 2 1.32 2 2 C2.99 2 3.98 2 5 2 C8.22265625 7.17578125 8.22265625 7.17578125 9 9 C8.67 9.99 8.34 10.98 8 12 C6.66382103 10.18959679 5.33112616 8.3766216 4 6.5625 C3.2575 5.55316406 2.515 4.54382813 1.75 3.50390625 C0 1 0 1 0 0 Z " fill="#D4534A" transform="translate(1504,682)"/>
<path d="M0 0 C0.66 0 1.32 0 2 0 C2 0.99 2 1.98 2 3 C1.34 3 0.68 3 0 3 C-0.268125 3.721875 -0.53625 4.44375 -0.8125 5.1875 C-1.98982498 7.97590126 -3.39145884 10.44095724 -5 13 C-5.33 11.68 -5.66 10.36 -6 9 C-5.34 9 -4.68 9 -4 9 C-4 7.68 -4 6.36 -4 5 C-3.34 4.67 -2.68 4.34 -2 4 C-0.86649466 1.98330173 -0.86649466 1.98330173 0 0 Z " fill="#EFBF2C" transform="translate(1173,672)"/>
<path d="M0 0 C0.66 0 1.32 0 2 0 C2.45375 0.804375 2.9075 1.60875 3.375 2.4375 C4.73420995 5.15236193 4.73420995 5.15236193 7.1875 5.8125 C7.785625 5.874375 8.38375 5.93625 9 6 C9 7.65 9 9.3 9 11 C1.33257403 5.03416856 1.33257403 5.03416856 0 0 Z " fill="#FDF5C8" transform="translate(1039,663)"/>
<path d="M0 0 C-3.15178744 2.73905337 -5.64817614 3.55269393 -9.75 4.1875 C-10.73484375 4.34605469 -11.7196875 4.50460937 -12.734375 4.66796875 C-13.48203125 4.77753906 -14.2296875 4.88710938 -15 5 C-13.61147985 2.22295969 -12.03211518 1.96617263 -9.1875 0.8125 C-7.87845703 0.26529297 -7.87845703 0.26529297 -6.54296875 -0.29296875 C-3.85198664 -1.04115271 -2.584628 -0.9458895 0 0 Z " fill="#DB6358" transform="translate(1585,604)"/>
<path d="M0 0 C0.33 0 0.66 0 1 0 C1.1799928 5.21979128 0.97094808 9.07262981 -1 14 C-1.66 14 -2.32 14 -3 14 C-2.48594831 9.03083364 -1.76615118 4.70973649 0 0 Z " fill="#D25346" transform="translate(770,594)"/>
<path d="M0 0 C1.41750563 0.11509661 2.83401169 0.24253658 4.25 0.375 C5.03890625 0.44460938 5.8278125 0.51421875 6.640625 0.5859375 C9.085877 1.01507113 10.84836903 1.78600638 13 3 C8.43762177 4.44560748 5.50574468 3.40342867 1 2 C0.67 1.34 0.34 0.68 0 0 Z " fill="#528BE0" transform="translate(642,421)"/>
<path d="M0 0 C5.50808397 0.59015185 10.64878069 1.56663769 16 3 C16 3.33 16 3.66 16 4 C10.50339543 4.19286332 6.18047725 3.90303246 1 2 C0.67 1.34 0.34 0.68 0 0 Z " fill="#FDDED7" transform="translate(836,724)"/>
<path d="M0 0 C2.475 0.495 2.475 0.495 5 1 C5 1.66 5 2.32 5 3 C7.475 3.99 7.475 3.99 10 5 C10 5.99 10 6.98 10 8 C6.05205855 6.32971708 3.18203882 3.8204435 0 1 C0 0.67 0 0.34 0 0 Z " fill="#D95C52" transform="translate(1518,700)"/>
<path d="M0 0 C1.65 0 3.3 0 5 0 C5 0.99 5 1.98 5 3 C5.66 3.33 6.32 3.66 7 4 C7 5.32 7 6.64 7 8 C6.34 8 5.68 8 5 8 C3.7109375 6.25 3.7109375 6.25 2.375 4 C1.92898438 3.2575 1.48296875 2.515 1.0234375 1.75 C0.68570313 1.1725 0.34796875 0.595 0 0 Z " fill="#F3C538" transform="translate(1009,694)"/>
<path d="M0 0 C1.125 3.75 1.125 3.75 0 6 C-0.66 6 -1.32 6 -2 6 C-2.0825 6.78375 -2.165 7.5675 -2.25 8.375 C-3 11 -3 11 -5.0625 12.3125 C-6.0215625 12.6528125 -6.0215625 12.6528125 -7 13 C-5.54331217 10.03216871 -3.98767914 7.13584687 -2.375 4.25 C-1.92898438 3.45078125 -1.48296875 2.6515625 -1.0234375 1.828125 C-0.68570312 1.22484375 -0.34796875 0.6215625 0 0 Z " fill="#FBE9A8" transform="translate(1173,675)"/>
<path d="M0 0 C1.15006091 3.37299744 0.85199953 5.34853215 -0.3125 8.6875 C-0.57675781 9.47511719 -0.84101562 10.26273438 -1.11328125 11.07421875 C-2 13 -2 13 -4 14 C-3.46148032 8.72250715 -2.22656164 4.74354436 0 0 Z " fill="#FBEEAD" transform="translate(1181,656)"/>
<path d="M0 0 C0.33 0 0.66 0 1 0 C0.35729017 5.9129304 -1.19003784 11.34244531 -3 17 C-4.13732426 13.59598052 -3.83989957 11.22543336 -3.0625 7.75 C-2.86785156 6.85796875 -2.67320312 5.9659375 -2.47265625 5.046875 C-2.31667969 4.37140625 -2.16070313 3.6959375 -2 3 C-1.34 3 -0.68 3 0 3 C0 2.01 0 1.02 0 0 Z " fill="#D15046" transform="translate(963,647)"/>
<path d="M0 0 C0.33 0 0.66 0 1 0 C1 2.64 1 5.28 1 8 C0.34 8 -0.32 8 -1 8 C-1.33 9.65 -1.66 11.3 -2 13 C-2.66 13 -3.32 13 -4 13 C-3.52343588 11.20763933 -3.04366502 9.41613103 -2.5625 7.625 C-2.29566406 6.62726562 -2.02882813 5.62953125 -1.75390625 4.6015625 C-1 2 -1 2 0 0 Z " fill="#D55C52" transform="translate(920,644)"/>
<path d="M0 0 C1.65 0 3.3 0 5 0 C2.03653214 2.47186455 -0.54041689 3.66248361 -4.25 4.6875 C-5.14203125 4.93886719 -6.0340625 5.19023438 -6.953125 5.44921875 C-7.62859375 5.63097656 -8.3040625 5.81273437 -9 6 C-9.33 5.34 -9.66 4.68 -10 4 C-6.5980513 1.90649311 -3.94727588 1.82057837 0 2 C0 1.34 0 0.68 0 0 Z " fill="#DC6357" transform="translate(1656,607)"/>
<path d="M0 0 C1.03348696 3.10046087 1.17755913 4.05610218 0 7 C-0.99 7.33 -1.98 7.66 -3 8 C-4.20882096 10.00016466 -4.20882096 10.00016466 -5 12 C-5 7.2660625 -2.57819196 3.86728793 0 0 Z " fill="#D9EDFC" transform="translate(1259,589)"/>
<path d="M0 0 C0.66 0.33 1.32 0.66 2 1 C-3.625 5 -3.625 5 -7 5 C-7 5.66 -7 6.32 -7 7 C-8.65 7.33 -10.3 7.66 -12 8 C-8.2646504 3.81188075 -5.22578394 1.77479455 0 0 Z " fill="#FDEFAD" transform="translate(1064,570)"/>
<path d="M0 0 C6.12096691 1.05486051 10.75506674 2.65217026 16 6 C13.39417629 6.93065133 12.35801776 7.14917407 9.75 6.0625 C9.1725 5.711875 8.595 5.36125 8 5 C8 4.34 8 3.68 8 3 C7.236875 3.061875 6.47375 3.12375 5.6875 3.1875 C2.51219194 2.96596688 2.04264341 2.28224968 0 0 Z " fill="#F2C32F" transform="translate(1120,534)"/>
<path d="M0 0 C2 3 2 3 2 5 C0.35666496 6.03789581 -1.31243867 7.03567924 -3 8 C-3.66 8.66 -4.32 9.32 -5 10 C-5.66 9.34 -6.32 8.68 -7 8 C-4.69 5.36 -2.38 2.72 0 0 Z " fill="#D8EBFA" transform="translate(1374,785)"/>
<path d="M0 0 C0.33 1.32 0.66 2.64 1 4 C0.34 4 -0.32 4 -1 4 C-0.67 5.98 -0.34 7.96 0 10 C-1.65 10.33 -3.3 10.66 -5 11 C-3.77472971 6.94718288 -2.30119506 3.55639236 0 0 Z " fill="#5A8FDC" transform="translate(1218,574)"/>
<path d="M0 0 C0 0.66 0 1.32 0 2 C-1.41377782 2.36552803 -2.83120576 2.71695495 -4.25 3.0625 C-5.03890625 3.25972656 -5.8278125 3.45695313 -6.640625 3.66015625 C-9.10394822 4.01497267 -10.65604132 3.76877544 -13 3 C-11.58603098 2.49242138 -10.16868271 1.99425075 -8.75 1.5 C-7.96109375 1.2215625 -7.1721875 0.943125 -6.359375 0.65625 C-4 0 -4 0 0 0 Z " fill="#FFF9D1" transform="translate(1115,724)"/>
<path d="M0 0 C4.38889325 0.66498383 7.9811485 2.18757677 12 4 C12 4.66 12 5.32 12 6 C10.55903414 5.57405412 9.12231288 5.13373367 7.6875 4.6875 C6.88699219 4.44386719 6.08648438 4.20023438 5.26171875 3.94921875 C2.90035427 2.95817977 1.66120007 1.91925057 0 0 Z " fill="#F2C22C" transform="translate(1032,713)"/>
<path d="M0 0 C0 3 0 3 -1.75 5 C-3.76583262 6.79185122 -5.80641156 8.43315111 -8 10 C-8.66 9.34 -9.32 8.68 -10 8 C-9.36191406 7.50628906 -8.72382812 7.01257813 -8.06640625 6.50390625 C-7.24011719 5.86324219 -6.41382813 5.22257813 -5.5625 4.5625 C-4.73878906 3.92441406 -3.91507813 3.28632812 -3.06640625 2.62890625 C-1.12498733 1.16417803 -1.12498733 1.16417803 0 0 Z " fill="#D4554A" transform="translate(1629,670)"/>
<path d="M0 0 C3.59478807 3.32850747 6.22364768 6.98971331 9 11 C5.54438548 9.46417132 2.71786475 7.64236851 0 5 C-0.3125 2.25 -0.3125 2.25 0 0 Z " fill="#5287DA" transform="translate(1256,662)"/>
<path d="M0 0 C0.66 0 1.32 0 2 0 C1.57316761 1.58624235 1.13303842 3.1689098 0.6875 4.75 C0.44386719 5.63171875 0.20023438 6.5134375 -0.05078125 7.421875 C-1.02125331 10.05772505 -2.21005644 11.85407326 -4 14 C-3.21824485 9.15311808 -1.60155722 4.6233633 0 0 Z " fill="#FEFAD4" transform="translate(1137,644)"/>
<path d="M0 0 C0.95712891 0.2165625 0.95712891 0.2165625 1.93359375 0.4375 C3.17302734 0.7159375 3.17302734 0.7159375 4.4375 1 C5.26121094 1.185625 6.08492187 1.37125 6.93359375 1.5625 C8.81101689 2.03452147 8.81101689 2.03452147 10 2 C10 3.98 10 5.96 10 8 C8.51714758 7.04737966 7.03881799 6.08771595 5.5625 5.125 C4.73878906 4.59132813 3.91507813 4.05765625 3.06640625 3.5078125 C1 2 1 2 0 0 Z " fill="#D9554B" transform="translate(894,574)"/>
<path d="M0 0 C0.33 1.32 0.66 2.64 1 4 C0.34 4 -0.32 4 -1 4 C-1.66 5.32 -2.32 6.64 -3 8 C-3.99 8 -4.98 8 -6 8 C-4.55746343 4.63408134 -2.66735273 2.48952921 0 0 Z " fill="#F3C742" transform="translate(1012,556)"/>
<path d="M0 0 C4.59306496 1.4859916 7.43569245 3.85014682 11 7 C10.34 7.66 9.68 8.32 9 9 C8.79375 8.38125 8.5875 7.7625 8.375 7.125 C6.46293283 4.1699871 4.27219312 4.04431695 1 3 C0.67 2.01 0.34 1.02 0 0 Z " fill="#D55449" transform="translate(920,543)"/>
<path d="M0 0 C0.66 0.33 1.32 0.66 2 1 C0.33697876 4.32604248 -2.62976481 4.80042476 -6 6 C-8.23046875 5.58203125 -8.23046875 5.58203125 -10 5 C-8.38007835 4.13624104 -6.75388139 3.28424146 -5.125 2.4375 C-4.22007813 1.96183594 -3.31515625 1.48617187 -2.3828125 0.99609375 C-1.20332031 0.50302734 -1.20332031 0.50302734 0 0 Z " fill="#6897E4" transform="translate(1266,533)"/>
<path d="M0 0 C-1.98523557 1.98523557 -3.5016206 2.85464378 -6 4.0625 C-6.70125 4.40410156 -7.4025 4.74570312 -8.125 5.09765625 C-8.74375 5.39542969 -9.3625 5.69320313 -10 6 C-10.99 6.495 -10.99 6.495 -12 7 C-12 6.01 -12 5.02 -12 4 C-11.34 4 -10.68 4 -10 4 C-10 3.34 -10 2.68 -10 2 C-6.49223216 0.39644899 -3.85645121 -0.22036864 0 0 Z " fill="#4E87E1" transform="translate(561,467)"/>
<path d="M0 0 C3 1 3 1 4.8125 3.8125 C5.204375 4.864375 5.59625 5.91625 6 7 C5.34 8.32 4.68 9.64 4 11 C2.68 7.37 1.36 3.74 0 0 Z " fill="#6292DD" transform="translate(1248,743)"/>
<path d="M0 0 C1.65 0 3.3 0 5 0 C1.267612 3.57011026 -3.0949989 4.10913442 -8 5 C-7.34 4.01 -6.68 3.02 -6 2 C-2.875 1.8125 -2.875 1.8125 0 2 C0 1.34 0 0.68 0 0 Z " fill="#5189E0" transform="translate(664,715)"/>
<path d="M0 0 C3.87302138 1.14430177 7.00263439 2.23320098 10 5 C10 5.66 10 6.32 10 7 C5.56541027 5.6062718 3.12621626 3.39417765 0 0 Z " fill="#D7594C" transform="translate(803,706)"/>
<path d="M0 0 C1.29608947 0.93137592 2.58671632 1.8703566 3.875 2.8125 C4.59429688 3.33457031 5.31359375 3.85664062 6.0546875 4.39453125 C8 6 8 6 10 9 C6 9 6 9 4.296875 7.5390625 C3.78640625 6.90742187 3.2759375 6.27578125 2.75 5.625 C2.22921875 4.99851562 1.7084375 4.37203125 1.171875 3.7265625 C0 2 0 2 0 0 Z " fill="#D8EEFD" transform="translate(1231,698)"/>
<path d="M0 0 C3.96 1.98 7.92 3.96 12 6 C8.35839192 7.21386936 7.66834531 6.6674695 4.3125 5.0625 C3.50425781 4.68222656 2.69601562 4.30195312 1.86328125 3.91015625 C1.24839844 3.60980469 0.63351562 3.30945313 0 3 C0 2.01 0 1.02 0 0 Z " fill="#4D88DB" transform="translate(545,668)"/>
<path d="M0 0 C2 1 2 1 3.1875 4.25 C3.95061988 7.77209175 4.0252106 9.61680501 3 13 C0.89172945 9.83759418 0.66182535 8.49342531 0.375 4.8125 C0.30023437 3.91144531 0.22546875 3.01039063 0.1484375 2.08203125 C0.09945313 1.39496094 0.05046875 0.70789063 0 0 Z " fill="#DA6E68" transform="translate(1491,648)"/>
<path d="M0 0 C0.66 0 1.32 0 2 0 C0.14285714 7.57142857 0.14285714 7.57142857 -3 10 C-3.66 9.67 -4.32 9.34 -5 9 C-3.35 6.03 -1.7 3.06 0 0 Z " fill="#6291DD" transform="translate(696,636)"/>
<path d="M0 0 C0.66 0.33 1.32 0.66 2 1 C-1.17320782 4.53586014 -3.16743695 6.58578031 -8 7 C-5.42215154 4.35247996 -3.08351902 2.05567935 0 0 Z " fill="#DA5F51" transform="translate(812,541)"/>
<path d="M0 0 C0.66 0.33 1.32 0.66 2 1 C-0.475 5.455 -0.475 5.455 -3 10 C-3.33 10 -3.66 10 -4 10 C-3.38461538 3.47692308 -3.38461538 3.47692308 -1.4375 1.0625 C-0.7259375 0.5365625 -0.7259375 0.5365625 0 0 Z " fill="#568BDA" transform="translate(1383,768)"/>
<path d="M0 0 C-3.07692746 2.6815279 -5.19734663 3.42087807 -9.25 3.6875 C-10.14203125 3.75324219 -11.0340625 3.81898438 -11.953125 3.88671875 C-12.62859375 3.92410156 -13.3040625 3.96148438 -14 4 C-11.37350692 2.24900461 -9.38191413 1.30690675 -6.4375 0.3125 C-5.65246094 0.04050781 -4.86742187 -0.23148438 -4.05859375 -0.51171875 C-2 -1 -2 -1 0 0 Z " fill="#CFE5FB" transform="translate(667,718)"/>
<path d="M0 0 C5 2 5 2 10 4 C10 5.32 10 6.64 10 8 C6.05205855 6.32971708 3.18203882 3.8204435 0 1 C0 0.67 0 0.34 0 0 Z " fill="#5A8EDF" transform="translate(497,685)"/>
<path d="M0 0 C-1.4096347 0.70180531 -2.82807641 1.38593958 -4.25 2.0625 C-5.03890625 2.44535156 -5.8278125 2.82820312 -6.640625 3.22265625 C-9.25993522 4.08564091 -10.44855176 3.93045933 -13 3 C-11.5903653 2.29819469 -10.17192359 1.61406042 -8.75 0.9375 C-7.96109375 0.55464844 -7.1721875 0.17179688 -6.359375 -0.22265625 C-3.74006478 -1.08564091 -2.55144824 -0.93045933 0 0 Z " fill="#F9C4BB" transform="translate(1627,623)"/>
<path d="M0 0 C1.485 0.99 1.485 0.99 3 2 C3.29296875 4.6015625 3.29296875 4.6015625 3.1875 7.625 C3.16042969 8.62789062 3.13335938 9.63078125 3.10546875 10.6640625 C3.07066406 11.43492187 3.03585937 12.20578125 3 13 C1.32889958 10.03821227 0.67317248 7.62928808 0.375 4.25 C0.30023437 3.45078125 0.22546875 2.6515625 0.1484375 1.828125 C0.09945313 1.22484375 0.05046875 0.6215625 0 0 Z " fill="#749FDF" transform="translate(1354,607)"/>
<path d="M0 0 C0.33 1.32 0.66 2.64 1 4 C0.34 4 -0.32 4 -1 4 C-0.67 4.99 -0.34 5.98 0 7 C-1.65 7.66 -3.3 8.32 -5 9 C-3.7508258 5.54074837 -2.32472205 2.85306797 0 0 Z " fill="#6091DD" transform="translate(1224,565)"/>
<path d="M0 0 C0.33 0.66 0.66 1.32 1 2 C-1.17508418 6.69360269 -1.17508418 6.69360269 -4.1875 7.8125 C-4.785625 7.874375 -5.38375 7.93625 -6 8 C-4.26440562 4.942048 -2.61527381 2.36620011 0 0 Z " fill="#D95D51" transform="translate(794,555)"/>
<path d="M0 0 C0.33 0.99 0.66 1.98 1 3 C-0.32 4.32 -1.64 5.64 -3 7 C-3.99 6.67 -4.98 6.34 -6 6 C-2.25 1.125 -2.25 1.125 0 0 Z " fill="#DD4B40" transform="translate(1534,540)"/>
<path d="M0 0 C0.33 1.32 0.66 2.64 1 4 C0.01 4.495 0.01 4.495 -1 5 C-1.65213292 7.02463255 -1.65213292 7.02463255 -2 9 C-3.32 9.33 -4.64 9.66 -6 10 C-4.34832443 6.4213696 -2.21713508 3.25179812 0 0 Z " fill="#DBEFFD" transform="translate(518,500)"/>
<path d="M0 0 C0.66 0 1.32 0 2 0 C0.18690997 3.77727089 -1.9073259 7.37269822 -4 11 C-4.64453125 9.234375 -4.64453125 9.234375 -5 7 C-4.07421875 5.078125 -4.07421875 5.078125 -2.6875 3.25 C-2.23761719 2.63640625 -1.78773438 2.0228125 -1.32421875 1.390625 C-0.88722656 0.93171875 -0.45023438 0.4728125 0 0 Z " fill="#598CD9" transform="translate(513,504)"/>
<path d="M0 0 C0 0.66 0 1.32 0 2 C-6.45 6.09326923 -6.45 6.09326923 -9.234375 5.62109375 C-9.81703125 5.41613281 -10.3996875 5.21117187 -11 5 C-9.54462432 4.16151196 -8.08559627 3.32936066 -6.625 2.5 C-5.81289063 2.0359375 -5.00078125 1.571875 -4.1640625 1.09375 C-2 0 -2 0 0 0 Z " fill="#5389DE" transform="translate(539,431)"/>
<path d="M0 0 C0.66 0.33 1.32 0.66 2 1 C0.625 2.5 0.625 2.5 -1 4 C-1.66 4 -2.32 4 -3 4 C-3.33 4.99 -3.66 5.98 -4 7 C-5.65 7 -7.3 7 -9 7 C-6.03716687 4.61327331 -3.05729491 2.2646629 0 0 Z " fill="#DAEEFD" transform="translate(694,701)"/>
<path d="M0 0 C0 0.99 0 1.98 0 3 C-1.45381897 3.69699552 -2.91322953 4.38233866 -4.375 5.0625 C-5.18710938 5.44535156 -5.99921875 5.82820312 -6.8359375 6.22265625 C-7.55007813 6.47917969 -8.26421875 6.73570312 -9 7 C-9.66 6.67 -10.32 6.34 -11 6 C-7.375 3 -7.375 3 -4 3 C-4 2.34 -4 1.68 -4 1 C-2 0 -2 0 0 0 Z " fill="#558AE1" transform="translate(1332,680)"/>
<path d="M0 0 C1 2 1 2 0.1875 4.5 C-1 7 -1 7 -3 9 C-3.99 8.67 -4.98 8.34 -6 8 C-4.02 5.36 -2.04 2.72 0 0 Z " fill="#C6E0F8" transform="translate(728,666)"/>
<path d="M0 0 C3.99500618 1.3697164 6.80009492 3.25722422 10 6 C9.67 6.66 9.34 7.32 9 8 C7.49460339 7.05016642 5.99579653 6.08988109 4.5 5.125 C3.6646875 4.59132813 2.829375 4.05765625 1.96875 3.5078125 C1.3190625 3.01023437 0.669375 2.51265625 0 2 C0 1.34 0 0.68 0 0 Z " fill="#D3503E" transform="translate(1647,668)"/>
<path d="M0 0 C2.72647685 2.35468455 3.98756342 4.5408417 5 8 C4.625 10.3125 4.625 10.3125 4 12 C1.8480563 8.77208445 1.79913557 7.71599191 2 4 C1.34 4 0.68 4 0 4 C0 2.68 0 1.36 0 0 Z " fill="#FCF0B3" transform="translate(1133,596)"/>
<path d="M0 0 C0.33 1.32 0.66 2.64 1 4 C-0.4375 6.25 -0.4375 6.25 -2 8 C-2.99 7.67 -3.98 7.34 -5 7 C-3.35 4.69 -1.7 2.38 0 0 Z " fill="#D45448" transform="translate(787,563)"/>
<path d="M0 0 C3.98175544 2.10148204 6.35039045 4.36905358 9 8 C7.68 7.67 6.36 7.34 5 7 C5 6.34 5 5.68 5 5 C3.68 4.67 2.36 4.34 1 4 C0.67 2.68 0.34 1.36 0 0 Z " fill="#ECC436" transform="translate(1150,551)"/>
<path d="M0 0 C1.19126781 3.57380342 0.7349445 5.50883302 0.0625 9.1875 C-0.13214844 10.27417969 -0.32679688 11.36085938 -0.52734375 12.48046875 C-0.68332031 13.31191406 -0.83929688 14.14335938 -1 15 C-1.33 15 -1.66 15 -2 15 C-2.33 11.7 -2.66 8.4 -3 5 C-2.34 5 -1.68 5 -1 5 C-0.67 3.35 -0.34 1.7 0 0 Z " fill="#548ADD" transform="translate(496,541)"/>
<path d="M0 0 C0 0.33 0 0.66 0 1 C-1.65 1 -3.3 1 -5 1 C-5 1.66 -5 2.32 -5 3 C-7.31 2.34 -9.62 1.68 -12 1 C-8.00439392 -1.83022097 -4.57262677 -0.76210446 0 0 Z " fill="#D8EBFD" transform="translate(592,461)"/>
<path d="M0 0 C1.60080151 4.00200378 0.29279692 7.04556236 -1 11 C-1.33 11 -1.66 11 -2 11 C-2 7.7 -2 4.4 -2 1 C-1.34 0.67 -0.68 0.34 0 0 Z " fill="#DD6C63" transform="translate(811,607)"/>
<path d="M0 0 C0.33 0 0.66 0 1 0 C1 2.97 1 5.94 1 9 C0.01 9.33 -0.98 9.66 -2 10 C-1.54177532 6.53058454 -1.10868317 3.32604951 0 0 Z " fill="#6895DD" transform="translate(1208,595)"/>
<path d="M0 0 C0.66 0 1.32 0 2 0 C1.71125 0.70125 1.4225 1.4025 1.125 2.125 C-0.02133588 5.05452503 -1.02625654 8.00921653 -2 11 C-2.33 11 -2.66 11 -3 11 C-3 8.69 -3 6.38 -3 4 C-2.34 4 -1.68 4 -1 4 C-0.67 2.68 -0.34 1.36 0 0 Z " fill="#5A8FDD" transform="translate(1253,596)"/>
<path d="M0 0 C3.2542015 2.83430453 4.5206753 4.68607774 5 9 C4.01 9 3.02 9 2 9 C1.34 6.03 0.68 3.06 0 0 Z " fill="#FACBC4" transform="translate(1616,579)"/>
<path d="M0 0 C0.75 1.5625 0.75 1.5625 1 4 C-0.13084437 6.50286409 -1.52139516 8.67007722 -3 11 C-4 9 -4 9 -3.4765625 7.08984375 C-3.05503906 6.02443359 -3.05503906 6.02443359 -2.625 4.9375 C-2.34914063 4.22464844 -2.07328125 3.51179687 -1.7890625 2.77734375 C-1 1 -1 1 0 0 Z " fill="#EFC844" transform="translate(994,582)"/>
<path d="M0 0 C0.625 1.8125 0.625 1.8125 1 4 C0.01 5.485 0.01 5.485 -1 7 C-1.66 7 -2.32 7 -3 7 C-3 7.99 -3 8.98 -3 10 C-3.66 10 -4.32 10 -5 10 C-3.66511872 6.40608886 -2.03977277 3.24509304 0 0 Z " fill="#D66257" transform="translate(781,571)"/>
<path d="M0 0 C1.43836751 0.11458693 2.87570966 0.24209116 4.3125 0.375 C5.51326172 0.47941406 5.51326172 0.47941406 6.73828125 0.5859375 C9 1 9 1 12 3 C12 3.66 12 4.32 12 5 C10.56068883 4.54738642 9.12361001 4.08767021 7.6875 3.625 C6.88699219 3.36976563 6.08648438 3.11453125 5.26171875 2.8515625 C3 2 3 2 0 0 Z " fill="#6898E0" transform="translate(641,464)"/>
<path d="M0 0 C0.66 0.99 1.32 1.98 2 3 C0.35 4.65 -1.3 6.3 -3 8 C-3.66 7.67 -4.32 7.34 -5 7 C-3.35 4.69 -1.7 2.38 0 0 Z " fill="#D3E8FC" transform="translate(1380,777)"/>
<path d="M0 0 C1.46067199 0.45082469 2.91848032 0.91093537 4.375 1.375 C5.18710938 1.63023437 5.99921875 1.88546875 6.8359375 2.1484375 C9 3 9 3 11 5 C7.7 4.34 4.4 3.68 1 3 C0.67 2.01 0.34 1.02 0 0 Z " fill="#FEE8E3" transform="translate(1547,720)"/>
<path d="M0 0 C1.6254308 0.14095064 3.25034051 0.28792087 4.875 0.4375 C5.77992188 0.51871094 6.68484375 0.59992187 7.6171875 0.68359375 C10 1 10 1 12 2 C12 2.66 12 3.32 12 4 C10.5608866 3.71640113 9.12374482 3.42278601 7.6875 3.125 C6.88699219 2.96257813 6.08648438 2.80015625 5.26171875 2.6328125 C3 2 3 2 0 0 Z " fill="#DA6256" transform="translate(826,720)"/>
<path d="M0 0 C1.80330533 3.60661066 2.46599103 6.08393425 3 10 C2.01 9.67 1.02 9.34 0 9 C0 6.03 0 3.06 0 0 Z " fill="#6C98E3" transform="translate(495,594)"/>
<path d="M0 0 C0.66 0 1.32 0 2 0 C0.44499019 3.81684226 -2.03595495 6.19195732 -5 9 C-4.49396008 6.83125748 -4.00016187 5.00032373 -3 3 C-2.34 3 -1.68 3 -1 3 C-0.67 2.01 -0.34 1.02 0 0 Z " fill="#CE4E3F" transform="translate(1545,581)"/>
<path d="M0 0 C3.82524236 1.450954 5.19090966 3.38181932 7 7 C7 7.66 7 8.32 7 9 C6.01 8.67 5.02 8.34 4 8 C3.67 6.35 3.34 4.7 3 3 C2.01 2.67 1.02 2.34 0 2 C0 1.34 0 0.68 0 0 Z " fill="#EFBF2B" transform="translate(1164,567)"/>
<path d="M0 0 C0 0.33 0 0.66 0 1 C-7.42857143 3.14285714 -7.42857143 3.14285714 -11 4 C-10.67 3.01 -10.34 2.02 -10 1 C-6.78548731 -0.60725635 -3.56387464 -0.05748185 0 0 Z " fill="#4983E3" transform="translate(580,419)"/>
<path d="M0 0 C6.625 -0.25 6.625 -0.25 10 2 C10 2.66 10 3.32 10 4 C6.7 3.01 3.4 2.02 0 1 C0 0.67 0 0.34 0 0 Z " fill="#CEE6FC" transform="translate(1277,773)"/>
<path d="M0 0 C0.99 0.33 1.98 0.66 3 1 C-0.465 3.97 -0.465 3.97 -4 7 C-4 4 -4 4 -2 1.8125 C-1.34 1.214375 -0.68 0.61625 0 0 Z " fill="#518ADA" transform="translate(710,685)"/>
<path d="M0 0 C0.93423645 3.01031744 1.04449911 3.86650268 0 7 C-1.32 6.67 -2.64 6.34 -4 6 C-2.68 4.02 -1.36 2.04 0 0 Z " fill="#FCE0DB" transform="translate(951,681)"/>
<path d="M0 0 C3.37462715 0.54723683 5.08235 1.0549 8 3 C8 3.66 8 4.32 8 5 C2.25 3.375 2.25 3.375 0 0 Z " fill="#FDF2BB" transform="translate(1052,677)"/>
<path d="M0 0 C0 0.66 0 1.32 0 2 C-3.465 3.485 -3.465 3.485 -7 5 C-7.66 4.34 -8.32 3.68 -9 3 C-2.25 0 -2.25 0 0 0 Z " fill="#FCD0CA" transform="translate(1582,640)"/>
<path d="M0 0 C1.65 0 3.3 0 5 0 C5.33 1.98 5.66 3.96 6 6 C3.97945196 4.35830472 1.97956942 2.69088222 0 1 C0 0.67 0 0.34 0 0 Z " fill="#F4C436" transform="translate(1122,581)"/>
<path d="M0 0 C1.32 0.33 2.64 0.66 4 1 C1.69 2.65 -0.62 4.3 -3 6 C-3.33 5.01 -3.66 4.02 -4 3 C-3.01 2.67 -2.02 2.34 -1 2 C-0.67 1.34 -0.34 0.68 0 0 Z " fill="#EEC22D" transform="translate(1053,573)"/>
<path d="M0 0 C0.66 0.33 1.32 0.66 2 1 C-0.97 4.96 -0.97 4.96 -4 9 C-4.33 7.68 -4.66 6.36 -5 5 C-4.34 5 -3.68 5 -3 5 C-2.5359375 4.0409375 -2.5359375 4.0409375 -2.0625 3.0625 C-1 1 -1 1 0 0 Z " fill="#FEF8C9" transform="translate(1002,566)"/>
<path d="M0 0 C-1.28610235 2.5722047 -2.33393981 3.00974907 -5 4 C-7.25 3.625 -7.25 3.625 -9 3 C-6.40821726 0.40821726 -3.54324677 -1.77162338 0 0 Z " fill="#F2C738" transform="translate(1039,539)"/>
<path d="M0 0 C2.97 1.98 2.97 1.98 6 4 C5.67 5.32 5.34 6.64 5 8 C4.34 8 3.68 8 3 8 C2.814375 7.13375 2.814375 7.13375 2.625 6.25 C1.99351176 3.97664233 1.11141809 2.0746471 0 0 Z " fill="#5188D3" transform="translate(705,453)"/>
<path d="M0 0 C3.91211733 1.15585285 6.8745041 2.35534962 10 5 C8.51793505 4.745504 7.03931385 4.47088238 5.5625 4.1875 C4.73878906 4.03667969 3.91507813 3.88585937 3.06640625 3.73046875 C2.38449219 3.48941406 1.70257812 3.24835937 1 3 C0.67 2.01 0.34 1.02 0 0 Z " fill="#FEE7DE" transform="translate(816,716)"/>
<path d="M0 0 C0.33 2.31 0.66 4.62 1 7 C-0.7074998 5.71937515 -2.37373596 4.38232443 -4 3 C-4 2.34 -4 1.68 -4 1 C-1 0 -1 0 0 0 Z " fill="#D44B3E" transform="translate(792,690)"/>
<path d="M0 0 C1.32 0.33 2.64 0.66 4 1 C2.35 2.98 0.7 4.96 -1 7 C-1.33 6.01 -1.66 5.02 -2 4 C-1.34 4 -0.68 4 0 4 C0 2.68 0 1.36 0 0 Z " fill="#F2BC28" transform="translate(1161,688)"/>
<path d="M0 0 C1.9375 0.625 1.9375 0.625 4 2 C4.75 5.125 4.75 5.125 5 8 C2.20127563 5.47211993 0.54226981 3.79588866 0 0 Z " fill="#EEC232" transform="translate(999,680)"/>
<path d="M0 0 C0.33 0 0.66 0 1 0 C1.17942163 3.94727588 1.09350689 6.5980513 -1 10 C-1.66 9.67 -2.32 9.34 -3 9 C-2.01 6.03 -1.02 3.06 0 0 Z " fill="#FEF7D7" transform="translate(1176,670)"/>
<path d="M0 0 C2.125 0.375 2.125 0.375 4 1 C3.01 2.485 3.01 2.485 2 4 C1.34 4 0.68 4 0 4 C-0.33 4.66 -0.66 5.32 -1 6 C-1.625 4.125 -1.625 4.125 -2 2 C-1.34 1.34 -0.68 0.68 0 0 Z " fill="#FBE5E3" transform="translate(1630,664)"/>
<path d="M0 0 C3.99996286 1.33332095 4.83782337 3.4957827 7 7 C6.67 7.66 6.34 8.32 6 9 C4.99406757 7.8803014 3.9954151 6.7540588 3 5.625 C2.443125 4.99851562 1.88625 4.37203125 1.3125 3.7265625 C0 2 0 2 0 0 Z " fill="#4E84D9" transform="translate(476,660)"/>
<path d="M0 0 C0.625 1.8125 0.625 1.8125 1 4 C0.01 5.485 0.01 5.485 -1 7 C-1.99 7 -2.98 7 -4 7 C-2.79618552 4.50638429 -1.54571278 2.31856917 0 0 Z " fill="#D45947" transform="translate(915,658)"/>
<path d="M0 0 C0.66 0 1.32 0 2 0 C1.25 6.625 1.25 6.625 -1 10 C-1.02689216 8.52093108 -1.04634621 7.04172517 -1.0625 5.5625 C-1.07410156 4.73878906 -1.08570313 3.91507813 -1.09765625 3.06640625 C-1 1 -1 1 0 0 Z " fill="#FACDCC" transform="translate(769,590)"/>
<path d="M0 0 C2.31 0 4.62 0 7 0 C4.60490662 2.89932357 2.68754757 3.50168276 -1 4 C-0.67 2.68 -0.34 1.36 0 0 Z " fill="#FDF5C8" transform="translate(1032,537)"/>
</svg>
